<?xml version="1.0" encoding="UTF-8"?>
<svg width="14px" height="16px" viewBox="0 0 14 16" version="1.1" xmlns="http://www.w3.org/2000/svg" xmlns:xlink="http://www.w3.org/1999/xlink">
    <title>ic_calender</title>
    <g id="Assets" stroke="none" stroke-width="1" fill="none" fill-rule="evenodd">
        <g id="ic_calender" transform="translate(0.000000, 0.142857)" fill="#7D7D7D" fill-rule="nonzero">
            <path d="M1.07142857,13.9285714 L12.8571429,13.9285714 L12.8571429,5.35714286 L1.07142857,5.35714286 L1.07142857,13.9285714 Z M4.28571429,3.75 L4.28571429,1.33928571 C4.28571429,1.26116071 4.26060268,1.19698661 4.21037946,1.14676339 C4.16015625,1.09654018 4.09598214,1.07142857 4.01785714,1.07142857 L3.48214286,1.07142857 C3.40401786,1.07142857 3.33984375,1.09654018 3.28962054,1.14676339 C3.23939732,1.19698661 3.21428571,1.26116071 3.21428571,1.33928571 L3.21428571,3.75 C3.21428571,3.828125 3.23939732,3.89229911 3.28962054,3.94252232 C3.33984375,3.99274554 3.40401786,4.01785714 3.48214286,4.01785714 L4.01785714,4.01785714 C4.09598214,4.01785714 4.16015625,3.99274554 4.21037946,3.94252232 C4.26060268,3.89229911 4.28571429,3.828125 4.28571429,3.75 Z M10.7142857,3.75 L10.7142857,1.33928571 C10.7142857,1.26116071 10.6891741,1.19698661 10.6389509,1.14676339 C10.5887277,1.09654018 10.5245536,1.07142857 10.4464286,1.07142857 L9.91071429,1.07142857 C9.83258929,1.07142857 9.76841518,1.09654018 9.71819196,1.14676339 C9.66796875,1.19698661 9.64285714,1.26116071 9.64285714,1.33928571 L9.64285714,3.75 C9.64285714,3.828125 9.66796875,3.89229911 9.71819196,3.94252232 C9.76841518,3.99274554 9.83258929,4.01785714 9.91071429,4.01785714 L10.4464286,4.01785714 C10.5245536,4.01785714 10.5887277,3.99274554 10.6389509,3.94252232 C10.6891741,3.89229911 10.7142857,3.828125 10.7142857,3.75 Z M13.9285714,3.21428571 L13.9285714,13.9285714 C13.9285714,14.21875 13.8225446,14.4698661 13.6104911,14.6819196 C13.3984375,14.8939732 13.1473214,15 12.8571429,15 L1.07142857,15 C0.78125,15 0.530133929,14.8939732 0.318080357,14.6819196 C0.106026786,14.4698661 0,14.21875 0,13.9285714 L0,3.21428571 C0,2.92410714 0.106026786,2.67299107 0.318080357,2.4609375 C0.530133929,2.24888393 0.78125,2.14285714 1.07142857,2.14285714 L2.14285714,2.14285714 L2.14285714,1.33928571 C2.14285714,0.970982143 2.27399554,0.655691964 2.53627232,0.393415179 C2.79854911,0.131138393 3.11383929,0 3.48214286,0 L4.01785714,0 C4.38616071,0 4.70145089,0.131138393 4.96372768,0.393415179 C5.22600446,0.655691964 5.35714286,0.970982143 5.35714286,1.33928571 L5.35714286,2.14285714 L8.57142857,2.14285714 L8.57142857,1.33928571 C8.57142857,0.970982143 8.70256696,0.655691964 8.96484375,0.393415179 C9.22712054,0.131138393 9.54241071,0 9.91071429,0 L10.4464286,0 C10.8147321,0 11.1300223,0.131138393 11.3922991,0.393415179 C11.6545759,0.655691964 11.7857143,0.970982143 11.7857143,1.33928571 L11.7857143,2.14285714 L12.8571429,2.14285714 C13.1473214,2.14285714 13.3984375,2.24888393 13.6104911,2.4609375 C13.8225446,2.67299107 13.9285714,2.92410714 13.9285714,3.21428571 Z" id="Shape"></path>
        </g>
    </g>
</svg>