<?xml version="1.0" encoding="UTF-8"?>
<svg width="12px" height="9px" viewBox="0 0 12 9" version="1.1" xmlns="http://www.w3.org/2000/svg" xmlns:xlink="http://www.w3.org/1999/xlink">
    <title>ic_email</title>
    <g id="Assets" stroke="none" stroke-width="1" fill="none" fill-rule="evenodd">
        <path d="M10.875,0 L1.125,0 C0.503677368,0 0,0.503677368 0,1.125 L0,7.875 C0,8.49632263 0.503677368,9 1.125,9 L10.875,9 C11.4963226,9 12,8.49632263 12,7.875 L12,1.125 C12,0.503677368 11.4963226,0 10.875,0 Z M10.875,1.125 L10.875,2.08135986 C10.3494873,2.50932312 9.51168823,3.17475128 7.7206192,4.57722473 C7.32591248,4.88770294 6.54402924,5.63360596 6,5.62490845 C5.45606232,5.63369751 4.67392731,4.8875885 4.2793808,4.57722473 C2.48858643,3.17495728 1.65058136,2.50939178 1.125,2.08135986 L1.125,1.125 L10.875,1.125 Z M1.125,7.875 L1.125,3.52496338 C1.66204834,3.95272064 2.42365265,4.55296326 3.58449554,5.46196747 C4.09675598,5.86521149 4.99388123,6.75540161 6,6.74997711 C7.00117493,6.75540161 7.88692474,5.87812042 8.41529846,5.46215057 C9.57611847,4.55316925 10.3379288,3.95276642 10.875,3.52496338 L10.875,7.875 L1.125,7.875 Z" id="ic_email" fill="#00AF10" fill-rule="nonzero"></path>
    </g>
</svg>