<?xml version="1.0" encoding="UTF-8"?>
<svg width="15px" height="16px" viewBox="0 0 15 16" version="1.1" xmlns="http://www.w3.org/2000/svg" xmlns:xlink="http://www.w3.org/1999/xlink">
    <title>ic_fb</title>
    <g id="Assets" stroke="none" stroke-width="1" fill="none" fill-rule="evenodd">
        <path d="M15,7.6620487 C15,3.4293847 11.6431452,0 7.5,0 C3.35685484,0 0,3.4293847 0,7.6620487 C0,11.4862845 2.74265412,14.6561361 6.328125,15.2314113 L6.328125,9.87695016 L4.42288306,9.87695016 L4.42288306,7.6620487 L6.328125,7.6620487 L6.328125,5.97393722 C6.328125,4.05377867 7.44707661,2.99313863 9.16088473,2.99313863 C9.98164023,2.99313863 10.8399323,3.14266733 10.8399323,3.14266733 L10.8399323,5.02728415 L9.89395634,5.02728415 C8.96251063,5.02728415 8.671875,5.61800701 8.671875,6.22387583 L8.671875,7.6620487 L10.7519236,7.6620487 L10.4192623,9.87695016 L8.671875,9.87695016 L8.671875,15.2314113 C12.2573459,14.6561361 15,11.4862845 15,7.6620487 Z" id="ic_fb" fill="#00AF10" fill-rule="nonzero"></path>
    </g>
</svg>