<?xml version="1.0" encoding="UTF-8"?>
<svg width="45px" height="16px" viewBox="0 0 45 16" version="1.1" xmlns="http://www.w3.org/2000/svg" xmlns:xlink="http://www.w3.org/1999/xlink">
    <title>ic_insta</title>
    <g id="Assets" stroke="none" stroke-width="1" fill="none" fill-rule="evenodd">
        <path d="M7.50165438,3.73231454 C5.37338966,3.73231454 3.6567193,5.48607613 3.6567193,7.66035857 C3.6567193,9.83460762 5.37338966,11.5883692 7.50165438,11.5883692 C9.62995178,11.5883692 11.3466221,9.83460762 11.3466221,7.66035857 C11.3466221,5.48607613 9.62995178,3.73231454 7.50165438,3.73231454 Z M7.50165438,10.2140646 C6.12631813,10.2140646 5.00195803,9.06881631 5.00195803,7.66035857 C5.00195803,6.25186744 6.12298485,5.10661916 7.50165438,5.10661916 C8.8803566,5.10661916 10.0013834,6.25186744 10.0013834,7.66035857 C10.0013834,9.06881631 8.87702332,10.2140646 7.50165438,10.2140646 Z M12.400722,3.57163124 C12.400722,3.06567748 11.9991601,2.65543929 11.5039071,2.65543929 C11.008654,2.65543929 10.6070921,3.06567748 10.6070921,3.57163124 C10.6070921,4.077585 11.005288,4.48782319 11.5039071,4.48782319 C11.9991601,4.48782319 12.400722,4.08102368 12.400722,3.57163124 Z M14.9472803,4.50151115 C14.8904185,3.27420187 14.6160114,2.18707735 13.7359282,1.29138395 C12.8591783,0.395723945 11.7950459,0.115387837 10.5936937,0.0538587859 C9.35554465,-0.0179529286 5.64443084,-0.0179529286 4.40628181,0.0538587859 C3.2082955,0.111949155 2.14416314,0.392285262 1.26407996,1.28797865 C0.383996784,2.18367205 0.11292293,3.27079658 0.0526951887,4.49810585 C-0.0175650629,5.76300694 -0.0175650629,9.55427152 0.0526951887,10.8191726 C0.109589653,12.0464819 0.383996784,13.1336064 1.26407996,14.0292998 C2.14416314,14.9249932 3.20496223,15.2052959 4.40628181,15.2668584 C5.64443084,15.3386367 9.35554465,15.3386367 10.5936937,15.2668584 C11.7950459,15.2087346 12.8591783,14.9283985 13.7359282,14.0292998 C14.6126454,13.1336064 14.8870526,12.0464819 14.9472803,10.8191726 C15.0175732,9.55427152 15.0175732,5.76641223 14.9472803,4.50151115 Z M13.3477321,12.176384 C13.0867235,12.8464263 12.5814379,13.3626627 11.9222007,13.6327162 C10.9350278,14.0327051 8.59258368,13.9403948 7.50165438,13.9403948 C6.41075777,13.9403948 4.06498038,14.0292998 3.08114079,13.6327162 C2.42526951,13.366068 1.91995124,12.849865 1.6556093,12.176384 C1.26407996,11.1678817 1.35443792,8.77482563 1.35443792,7.66035857 C1.35443792,6.54585812 1.26741324,4.14939671 1.6556093,3.14429979 C1.91661797,2.47425743 2.42190355,1.95802101 3.08114079,1.68796757 C4.06831366,1.28797865 6.41075777,1.38028892 7.50165438,1.38028892 C8.59258368,1.38028892 10.9383611,1.29138395 11.9222007,1.68796757 C12.5780719,1.95461571 13.0833902,2.47081875 13.3477321,3.14429979 C13.7392615,4.15280201 13.6489035,6.54585812 13.6489035,7.66035857 C13.6489035,8.77482563 13.7392615,11.171287 13.3477321,12.176384 Z M45,2.44670051 C44.5748731,3.06852792 44.0609137,3.59835025 43.4581218,4.03616751 C43.464467,4.125 43.4676396,4.25824873 43.4676396,4.43591371 C43.4676396,5.2607868 43.3470812,6.0840736 43.1059645,6.90577411 C42.8648477,7.72747462 42.4984137,8.51586294 42.0066624,9.27093909 C41.5149112,10.0260152 40.9295685,10.6938452 40.2506345,11.2744289 C39.5717005,11.8550127 38.7531726,12.3182107 37.7950508,12.6640228 C36.8369289,13.009835 35.8121827,13.1827411 34.7208122,13.1827411 C33.001269,13.1827411 31.427665,12.7227157 30,11.802665 C30.2220812,11.8280457 30.4695431,11.840736 30.7423858,11.840736 C32.1700508,11.840736 33.4422589,11.4029188 34.5590102,10.5272843 C33.8927665,10.5145939 33.2963198,10.3099619 32.7696701,9.91338832 C32.2430203,9.51681472 31.8813452,9.0107868 31.6846447,8.39530457 C31.8940355,8.42703046 32.0875635,8.4428934 32.2652284,8.4428934 C32.5380711,8.4428934 32.8077411,8.40799492 33.0742386,8.33819797 C32.3635787,8.19225888 31.7750635,7.83851523 31.3086929,7.27696701 C30.8423223,6.71541878 30.6091371,6.06345178 30.6091371,5.32106599 L30.6091371,5.28299492 C31.0406091,5.52411168 31.5038071,5.65418782 31.998731,5.67322335 C31.5799492,5.39403553 31.2468274,5.02918782 30.9993655,4.5786802 C30.7519036,4.12817259 30.6281726,3.63959391 30.6281726,3.11294416 C30.6281726,2.55456853 30.7677665,2.03743655 31.0469543,1.56154822 C31.8147208,2.5069797 32.7490482,3.26364213 33.8499365,3.83153553 C34.9508249,4.39942893 36.1294416,4.71510152 37.3857868,4.7785533 C37.3350254,4.53743655 37.3096447,4.30266497 37.3096447,4.07423858 C37.3096447,3.22398477 37.6094543,2.49904822 38.2090736,1.89942893 C38.8086929,1.29980964 39.5336294,1 40.3838832,1 C41.2722081,1 42.0209391,1.32360406 42.6300761,1.97081218 C43.3217005,1.83756345 43.9720812,1.59010152 44.5812183,1.2284264 C44.3464467,1.95812183 43.8959391,2.52284264 43.2296954,2.92258883 C43.819797,2.85913706 44.4098985,2.70050761 45,2.44670051 Z" id="ic_insta" fill="#00AF10" fill-rule="nonzero"></path>
    </g>
</svg>