<?xml version="1.0" encoding="UTF-8"?>
<svg width="15px" height="16px" viewBox="0 0 15 16" version="1.1" xmlns="http://www.w3.org/2000/svg" xmlns:xlink="http://www.w3.org/1999/xlink">
    <title>ic_insta</title>
    <g id="Page-1" stroke="none" stroke-width="1" fill="none" fill-rule="evenodd">
        <g id="ic_insta" transform="translate(0.000000, 0.000000)" fill="#00AF10" fill-rule="nonzero">
            <path d="M7.50165438,3.73231454 C5.37338966,3.73231454 3.6567193,5.48607613 3.6567193,7.66035857 C3.6567193,9.83460762 5.37338966,11.5883692 7.50165438,11.5883692 C9.62995178,11.5883692 11.3466221,9.83460762 11.3466221,7.66035857 C11.3466221,5.48607613 9.62995178,3.73231454 7.50165438,3.73231454 Z M7.50165438,10.2140646 C6.12631813,10.2140646 5.00195803,9.06881631 5.00195803,7.66035857 C5.00195803,6.25186744 6.12298485,5.10661916 7.50165438,5.10661916 C8.8803566,5.10661916 10.0013834,6.25186744 10.0013834,7.66035857 C10.0013834,9.06881631 8.87702332,10.2140646 7.50165438,10.2140646 Z M12.400722,3.57163124 C12.400722,3.06567748 11.9991601,2.65543929 11.5039071,2.65543929 C11.008654,2.65543929 10.6070921,3.06567748 10.6070921,3.57163124 C10.6070921,4.077585 11.005288,4.48782319 11.5039071,4.48782319 C11.9991601,4.48782319 12.400722,4.08102368 12.400722,3.57163124 Z M14.9472803,4.50151115 C14.8904185,3.27420187 14.6160114,2.18707735 13.7359282,1.29138395 C12.8591783,0.395723945 11.7950459,0.115387837 10.5936937,0.0538587859 C9.35554465,-0.0179529286 5.64443084,-0.0179529286 4.40628181,0.0538587859 C3.2082955,0.111949155 2.14416314,0.392285262 1.26407996,1.28797865 C0.383996784,2.18367205 0.11292293,3.27079658 0.0526951887,4.49810585 C-0.0175650629,5.76300694 -0.0175650629,9.55427152 0.0526951887,10.8191726 C0.109589653,12.0464819 0.383996784,13.1336064 1.26407996,14.0292998 C2.14416314,14.9249932 3.20496223,15.2052959 4.40628181,15.2668584 C5.64443084,15.3386367 9.35554465,15.3386367 10.5936937,15.2668584 C11.7950459,15.2087346 12.8591783,14.9283985 13.7359282,14.0292998 C14.6126454,13.1336064 14.8870526,12.0464819 14.9472803,10.8191726 C15.0175732,9.55427152 15.0175732,5.76641223 14.9472803,4.50151115 Z M13.3477321,12.176384 C13.0867235,12.8464263 12.5814379,13.3626627 11.9222007,13.6327162 C10.9350278,14.0327051 8.59258368,13.9403948 7.50165438,13.9403948 C6.41075777,13.9403948 4.06498038,14.0292998 3.08114079,13.6327162 C2.42526951,13.366068 1.91995124,12.849865 1.6556093,12.176384 C1.26407996,11.1678817 1.35443792,8.77482563 1.35443792,7.66035857 C1.35443792,6.54585812 1.26741324,4.14939671 1.6556093,3.14429979 C1.91661797,2.47425743 2.42190355,1.95802101 3.08114079,1.68796757 C4.06831366,1.28797865 6.41075777,1.38028892 7.50165438,1.38028892 C8.59258368,1.38028892 10.9383611,1.29138395 11.9222007,1.68796757 C12.5780719,1.95461571 13.0833902,2.47081875 13.3477321,3.14429979 C13.7392615,4.15280201 13.6489035,6.54585812 13.6489035,7.66035857 C13.6489035,8.77482563 13.7392615,11.171287 13.3477321,12.176384 Z"></path>
        </g>
    </g>
</svg>