<?xml version="1.0" encoding="UTF-8"?>
<svg width="15px" height="16px" viewBox="0 0 15 16" version="1.1" xmlns="http://www.w3.org/2000/svg" xmlns:xlink="http://www.w3.org/1999/xlink">
    <title>ic_linkedIn</title>
    <g id="Assets" stroke="none" stroke-width="1" fill="none" fill-rule="evenodd">
        <path d="M13.9285714,0 L1.06809344,0 C0.478788103,0 0,0.495980831 0,1.10483338 L0,14.219264 C0,14.8281166 0.478788103,15.3240974 1.06809344,15.3240974 L13.9285714,15.3240974 C14.5178441,15.3240974 15,14.8281166 15,14.219264 L15,1.10483338 C15,0.495980831 14.5178441,0 13.9285714,0 Z M4.53349522,13.1349406 L2.31026786,13.1349406 L2.31026786,5.82179547 L4.53683036,5.82179547 L4.53683036,13.1349406 L4.53349522,13.1349406 Z M3.42188154,4.82298601 C2.70871844,4.82298601 2.13281904,4.23123625 2.13281904,3.50607139 C2.13281904,2.78090653 2.70871844,2.18915677 3.42188154,2.18915677 C4.13170951,2.18915677 4.71094404,2.78090653 4.71094404,3.50607139 C4.71094404,4.23464345 4.13504464,4.82298601 3.42188154,4.82298601 Z M12.867181,13.1349406 L10.6439863,13.1349406 L10.6439863,9.57756087 C10.6439863,8.7292693 10.6272452,7.63809811 9.48885236,7.63809811 C8.3303506,7.63809811 8.15290179,8.56164863 8.15290179,9.51599752 L8.15290179,13.1349406 L5.92967442,13.1349406 L5.92967442,5.82179547 L8.06249346,5.82179547 L8.06249346,6.82060493 L8.09264047,6.82060493 C8.39061192,6.24592455 9.11718096,5.6405126 10.1986476,5.6405126 C12.4486542,5.6405126 12.867181,7.15581287 12.867181,9.12604061 L12.867181,13.1349406 Z" id="ic_linkedIn" fill="#00AF10" fill-rule="nonzero"></path>
    </g>
</svg>