<?xml version="1.0" encoding="UTF-8"?>
<svg width="15px" height="13px" viewBox="0 0 15 13" version="1.1" xmlns="http://www.w3.org/2000/svg" xmlns:xlink="http://www.w3.org/1999/xlink">
    <title>ic_insta</title>
    <g id="Page-1" stroke="none" stroke-width="1" fill="none" fill-rule="evenodd">
        <g id="ic_insta" transform="translate(0.000000, 0.000000)" fill="#00AF10" fill-rule="nonzero">
            <path d="M15,1.44670051 C14.5748731,2.06852792 14.0609137,2.59835025 13.4581218,3.03616751 C13.464467,3.125 13.4676396,3.25824873 13.4676396,3.43591371 C13.4676396,4.2607868 13.3470812,5.0840736 13.1059645,5.90577411 C12.8648477,6.72747462 12.4984137,7.51586294 12.0066624,8.27093909 C11.5149112,9.0260152 10.9295685,9.6938452 10.2506345,10.2744289 C9.5717005,10.8550127 8.7531726,11.3182107 7.7950508,11.6640228 C6.8369289,12.009835 5.8121827,12.1827411 4.7208122,12.1827411 C3.001269,12.1827411 1.427665,11.7227157 0,10.802665 C0.2220812,10.8280457 0.4695431,10.840736 0.7423858,10.840736 C2.1700508,10.840736 3.4422589,10.4029188 4.5590102,9.5272843 C3.8927665,9.5145939 3.2963198,9.3099619 2.7696701,8.91338832 C2.2430203,8.51681472 1.8813452,8.0107868 1.6846447,7.39530457 C1.8940355,7.42703046 2.0875635,7.4428934 2.2652284,7.4428934 C2.5380711,7.4428934 2.8077411,7.40799492 3.0742386,7.33819797 C2.3635787,7.19225888 1.7750635,6.83851523 1.3086929,6.27696701 C0.8423223,5.71541878 0.6091371,5.06345178 0.6091371,4.32106599 L0.6091371,4.28299492 C1.0406091,4.52411168 1.5038071,4.65418782 1.998731,4.67322335 C1.5799492,4.39403553 1.2468274,4.02918782 0.9993655,3.5786802 C0.7519036,3.12817259 0.6281726,2.63959391 0.6281726,2.11294416 C0.6281726,1.55456853 0.7677665,1.03743655 1.0469543,0.56154822 C1.8147208,1.5069797 2.7490482,2.26364213 3.8499365,2.83153553 C4.9508249,3.39942893 6.1294416,3.71510152 7.3857868,3.7785533 C7.3350254,3.53743655 7.3096447,3.30266497 7.3096447,3.07423858 C7.3096447,2.22398477 7.6094543,1.49904822 8.2090736,0.89942893 C8.8086929,0.29980964 9.5336294,-8.8817842e-16 10.3838832,-8.8817842e-16 C11.2722081,-8.8817842e-16 12.0209391,0.32360406 12.6300761,0.97081218 C13.3217005,0.83756345 13.9720812,0.59010152 14.5812183,0.2284264 C14.3464467,0.95812183 13.8959391,1.52284264 13.2296954,1.92258883 C13.819797,1.85913706 14.4098985,1.70050761 15,1.44670051 Z"></path>
        </g>
    </g>
</svg>