<?xml version="1.0" encoding="UTF-8"?>
<svg width="562px" height="504px" viewBox="0 0 562 504" version="1.1" xmlns="http://www.w3.org/2000/svg" xmlns:xlink="http://www.w3.org/1999/xlink">
    <title>login_illus</title>
    <defs>
        <polygon id="path-1" points="0 0 533.664099 0 533.664099 24.294454 0 24.294454"></polygon>
    </defs>
    <g id="Assets" stroke="none" stroke-width="1" fill="none" fill-rule="evenodd">
        <g id="login_illus">
            <path d="M405.078682,291.637094 C375.390263,273.592481 341.521008,254.384784 312.110564,228.686001 C304.557037,222.087347 296.615691,219.442955 287.495191,221.234643 C276.794269,223.33559 265.744756,225.432055 255.922594,229.893906 C225.392403,243.761276 198.852501,237.205201 173.950187,216.896047 C160.743004,206.124632 147.323978,195.628862 140.88011,179.14063 C137.992756,171.750899 135.238784,164.128104 133.872446,156.358522 C129.26456,130.127499 123.892242,103.911043 121.529453,77.4469546 C119.530946,55.041336 125.796596,33.8593088 142.654444,17.3206545 C163.002673,-2.64226318 196.77105,-5.69788041 223.071087,9.97238249 C241.244833,20.7998226 258.674324,33.1197755 277.61026,42.368424 C310.318297,58.3434643 345.300573,67.1136572 381.645825,70.7989983 C408.161068,73.4893309 434.711057,76.6917343 460.041543,85.7947171 C511.440046,104.266243 547.044404,137.510506 558.52433,192.605739 C562.8789,213.504278 562.281478,235.263366 554.037497,254.474424 C543.736724,278.482365 525.436319,296.358903 498.584816,302.890327 C467.54351,310.44141 437.731796,306.42664 405.078682,291.637094" id="Fill-3" fill="#E1E1E1"></path>
            <path d="M220.303763,188.268021 C217.216894,190.483259 213.800489,191.974651 210.023166,191.804334 C196.497657,191.197021 185.050237,186.104325 177.464205,174.595618 C172.295885,166.753203 170.852207,157.813814 172.370983,148.392608 C173.341654,142.376616 175.280755,136.877178 178.76329,131.865159 C179.766467,130.423069 180.525294,128.703093 180.970279,126.998805 C183.13019,118.748527 187.725747,112.695559 195.970849,109.79233 C199.436572,108.5721 202.950491,107.479608 206.380346,106.169737 C210.876146,104.455364 215.436956,102.839596 219.738846,100.712878 C225.249031,97.9878094 229.534107,93.547248 233.986193,89.4024999 C237.209808,86.4006669 240.802189,83.9377968 245.016651,82.7074823 C247.265111,82.0508663 249.811722,81.7393659 252.112863,82.0631919 C259.929794,83.1612868 266.444276,86.8511099 271.547586,92.9164037 C272.826496,94.436929 274.021341,96.0314077 275.217306,97.6180428 C280.033674,104.008283 279.799413,111.115646 278.455493,118.526667 C276.998365,126.56629 271.998175,132.450062 266.870206,138.193771 C263.111937,142.403508 258.856003,146.180731 254.712155,150.036389 C246.56569,157.616605 239.431368,166.078659 232.601922,174.832045 C230.010476,178.153222 227.212791,181.317528 224.406138,184.462785 C223.170942,185.84773 221.680188,187.006332 220.303763,188.268021" id="Fill-1" fill="#007B00"></path>
            <path d="M471.313534,415.20088 C475.319515,411.822557 479.219013,408.307533 483.358377,405.101768 C488.71052,400.95702 494.314857,397.139459 499.700626,393.039531 C507.094989,387.411234 514.398562,381.665285 521.706619,375.923817 C522.567445,375.249273 523.21979,374.299085 523.936024,373.449742 C524.568194,372.701244 525.20933,371.881035 526.310022,372.426721 C527.409593,372.971286 527.243705,374.013356 526.91529,374.931049 C523.812729,383.589192 520.303293,392.007546 514.459089,399.308757 C507.023254,408.601105 498.773669,416.984724 488.726212,423.446676 C486.203139,425.070288 483.4402,426.324133 480.766931,427.705716 C477.685666,429.300195 474.640269,430.987675 471.467093,432.37486 C468.409366,433.711623 465.22274,434.761536 462.063014,435.854029 C460.04209,436.552103 458.326042,435.98961 456.519203,434.753693 C450.431772,430.589896 447.669954,424.355406 445.48202,417.732101 C444.74561,415.500055 444.234495,413.192935 443.618018,410.921671 C441.19246,401.976679 442.682093,393.282681 445.445032,384.720902 C446.236364,382.265875 447.53545,379.975563 448.595791,377.607936 C448.813239,377.124998 449.037412,376.64094 449.195455,376.136713 C449.575429,374.917603 450.691813,374.459317 451.545914,375.363564 C452.275599,376.135592 452.979504,377.130601 453.214886,378.139055 C455.492489,387.91098 457.668093,397.706435 459.87396,407.494046 C459.989409,408.009478 460.102617,408.526031 460.269626,409.285734 C460.503887,408.893557 460.654084,408.725481 460.716852,408.529393 C463.744316,398.882965 468.876768,390.380573 475.208549,382.60875 C478.69781,378.32618 482.550232,374.330459 486.347731,370.308966 C487.581806,369.002457 489.134208,367.98728 490.590214,366.904872 C491.409569,366.296438 492.356702,365.940117 493.373329,366.477959 C494.404527,367.022525 494.658964,368.036582 494.505405,369.03159 C494.268902,370.571164 494.038003,372.172366 493.424889,373.581961 C487.338578,387.577069 480.864447,401.371607 472.017439,413.904455 C471.736101,414.303355 471.47606,414.716822 471.20481,415.124685 C471.241799,415.149337 471.277666,415.175108 471.313534,415.20088" id="Fill-5" fill="#007B00"></path>
            <path d="M44.3188135,184.056266 C41.7363347,179.498052 39.000297,175.018273 36.6117282,170.359213 C33.5237381,164.336498 30.8022716,158.126659 27.7635997,152.078173 C23.5939724,143.776351 19.2920827,135.539519 14.9946765,127.301566 C14.4891652,126.331208 13.6754154,125.516601 12.9726314,124.654933 C12.3527916,123.896351 11.664579,123.114238 12.4043515,122.133797 C13.1441241,121.153355 14.1372128,121.508555 14.9767426,121.999336 C22.9180892,126.64607 30.5478347,131.645764 36.6498377,138.734079 C44.4152082,147.753024 51.13593,157.403933 55.638455,168.4678 C56.7671686,171.245532 57.4912491,174.19134 58.3576797,177.073279 C59.3563727,180.394456 60.4548229,183.697705 61.2338259,187.071545 C61.9836863,190.32213 62.4286707,193.646669 62.9196107,196.952159 C63.2334536,199.066552 62.3647812,200.649825 60.8168631,202.196122 C55.6003455,207.410953 48.9625678,208.974057 42.0456941,209.901835 C39.7154105,210.215577 37.3526217,210.291771 35.005525,210.478895 C25.7650928,211.212826 17.4919694,208.147124 9.58424876,203.853349 C7.31673369,202.623035 5.30365556,200.924349 3.17064459,199.445282 C2.73574798,199.143867 2.30197223,198.833487 1.83569133,198.586976 C0.706977697,197.987505 0.461507702,196.807614 1.50951887,196.133069 C2.40285031,195.560491 3.51026746,195.051782 4.54594909,195.005841 C14.5721094,194.569965 24.603874,194.237175 34.633397,193.875252 C35.1624465,193.856203 35.6903751,193.840516 36.4682572,193.815865 C36.1263926,193.512208 35.9885258,193.334048 35.8069453,193.237684 C26.8792352,188.484502 19.466938,181.874643 12.9939279,174.220473 C9.42620644,170.001772 6.20931654,165.480534 2.95543802,161.008598 C1.89733904,159.555303 1.18782988,157.84093 0.390893045,156.210596 C-0.057453978,155.295143 -0.232309317,154.297894 0.482804185,153.399248 C1.2080055,152.486037 2.25265406,152.423289 3.20202888,152.756079 C4.67260712,153.272631 6.20483307,153.794787 7.47813862,154.658696 C20.1147995,163.217114 32.4846939,172.121767 43.1744078,183.125127 C43.5151515,183.474724 43.87495,183.807514 44.2246607,184.148148 C44.256045,184.117894 44.2885501,184.08652 44.3188135,184.056266" id="Fill-7" fill="#00B100"></path>
            <path d="M444.71927,121.074919 C451.129512,114.183813 458.099066,107.857442 466.86313,104.249416 C472.298216,102.011767 478.173804,100.610015 483.98214,99.5746687 C489.960847,98.5068274 496.10096,98.3353901 502.170458,97.7852221 C502.669244,97.7392814 503.237524,97.651882 503.666816,97.8345244 C504.327007,98.1135301 505.252843,98.5090684 505.40304,99.0424288 C505.561082,99.6060428 504.965901,100.39824 504.648696,101.067181 C504.565752,101.239739 504.298985,101.337223 504.102833,101.442551 C495.542768,106.064634 487.568916,111.816186 478.329605,115.13064 C471.483346,117.586787 464.531725,119.74488 457.648477,122.105784 C454.158096,123.302483 450.700219,124.602269 447.26476,125.953598 C445.489306,126.651673 444.192462,126.55755 443.221791,125.224149 C442.196197,123.817916 443.265505,122.839715 444.062442,121.839104 C444.272044,121.575785 444.49958,121.329274 444.71927,121.074919" id="Fill-9" fill="#00B100"></path>
            <path d="M455.069697,139.681466 C452.335901,143.714163 448.467787,146.317096 444.099767,148.239883 C441.847944,149.23041 440.682241,148.621975 440.27985,146.175913 C439.688032,142.584694 441.124984,139.431593 442.971053,136.530605 C446.478248,131.018841 451.935752,127.902717 457.653297,125.216866 C458.270895,124.926655 459.555409,125.045429 459.928658,125.485787 C460.443136,126.093101 460.711024,127.265149 460.518235,128.057346 C459.487036,132.28165 457.672352,136.175405 455.069697,139.681466" id="Fill-11" fill="#00B100"></path>
            <path d="M459.346368,143.052841 C464.23335,136.488923 470.09885,131.943034 477.567191,129.584371 C477.99312,129.451031 478.449313,129.192194 478.851705,129.253822 C479.520863,129.354667 480.46015,129.490248 480.730279,129.941812 C481.053089,130.481895 481.063177,131.541893 480.726916,132.071892 C480.116043,133.038888 479.241767,133.901677 478.319293,134.598631 C472.209444,139.215111 466.058123,143.776687 459.919131,148.35283 C459.696078,148.519785 459.45285,148.778622 459.214105,148.783104 C458.538222,148.798791 457.623594,148.947818 457.250345,148.584775 C456.88158,148.226213 456.787427,147.167336 457.047468,146.658626 C457.754736,145.272562 458.714198,144.015355 459.346368,143.052841" id="Fill-13" fill="#00B100"></path>
            <path d="M454.591423,234.306099 C454.288789,233.349188 453.728355,232.523375 453.943562,232.041558 C454.308965,231.216866 455.092451,230.525515 455.821015,229.923804 C468.743497,219.245391 481.683913,208.587147 494.624329,197.930023 C495.469463,197.23419 496.286576,196.466644 497.23595,195.952332 C497.712319,195.693495 498.456575,195.92544 499.078657,195.935524 C498.975537,196.601104 499.049514,197.376494 498.719979,197.90089 C498.341126,198.505963 497.605837,198.886935 497.025227,199.366511 C483.486268,210.589489 469.947309,221.812468 456.403866,233.028723 C455.993629,233.368236 455.531831,233.647242 454.591423,234.306099" id="Fill-15" fill="#007B00"></path>
            <path d="M467.27673,243.859973 C467.037985,242.795493 466.597484,241.992091 466.794757,241.404946 C467.033501,240.696787 467.756461,240.100679 468.370696,239.575162 C479.897698,229.718079 491.429184,219.864358 503.003262,210.06218 C503.870814,209.327128 505.021945,207.659817 506.226877,209.201632 C507.321965,210.601143 505.525214,211.274566 504.677838,212.005135 C492.83251,222.223021 480.964764,232.416255 469.094777,242.608369 C468.696869,242.950123 468.227225,243.211201 467.27673,243.859973" id="Fill-17" fill="#007B00"></path>
            <path d="M451.20248,228.040459 C450.961494,226.919954 450.536685,226.124395 450.726111,225.520443 C450.951406,224.799958 451.627289,224.156788 452.237041,223.630151 C463.363893,214.046471 474.504196,204.479599 485.660191,194.930656 C486.433589,194.270678 487.302262,193.6544 488.232582,193.279031 C488.70895,193.086304 489.543997,193.318249 489.968806,193.663364 C490.172803,193.829199 489.846631,194.720001 489.662809,195.248879 C489.587711,195.467377 489.26378,195.6052 489.045211,195.766552 C476.288617,205.228097 464.538562,215.859449 452.996989,226.731709 C452.619257,227.086909 452.155218,227.351348 451.20248,228.040459" id="Fill-19" fill="#007B00"></path>
            <path d="M461.245453,237.668734 C460.799348,237.413259 460.256848,237.286642 460.167179,237.010998 C460.018103,236.554952 459.960939,235.844552 460.217618,235.521847 C460.848666,234.731891 461.637757,234.049503 462.436936,233.417538 C473.74761,224.478149 485.060526,215.542122 496.42164,206.667722 C496.956294,206.249773 497.949383,206.415608 498.728385,206.310281 C498.461619,207.117044 498.444806,208.230826 497.888856,208.684631 C491.911269,213.568912 485.85298,218.35571 479.80702,223.155953 C474.133189,227.658142 468.45039,232.146886 462.764229,236.633388 C462.295706,237.004275 461.774503,237.311293 461.245453,237.668734" id="Fill-21" fill="#007B00"></path>
            <path d="M481.10364,192.706341 C480.510701,193.318137 480.007431,193.92545 479.417855,194.430798 C471.018074,201.643489 462.571216,208.800155 454.222994,216.073353 C452.434089,217.630855 451.043093,219.636559 449.360671,221.330763 C448.887664,221.806977 448.032443,221.905582 447.354318,222.176744 C447.308362,221.382306 447.001244,220.476938 447.27922,219.819201 C447.663677,218.911592 448.424746,218.127239 449.135376,217.39779 C458.079899,208.221974 467.852744,199.989624 478.032463,192.233488 C478.604105,191.798732 479.483986,191.709092 480.239451,191.622813 C480.437844,191.600403 480.706853,192.189788 481.10364,192.706341" id="Fill-23" fill="#007B00"></path>
            <path d="M74.1892615,426.260489 C73.2320406,426.563025 72.4059612,427.123277 71.9239881,426.909261 C71.0990296,426.542856 70.4074543,425.760743 69.8055484,425.031295 C59.1236806,412.112992 48.4619884,399.176761 37.801417,386.240531 C37.1053583,385.39567 36.337564,384.578822 35.8230858,383.630875 C35.5641654,383.153539 35.796185,382.410645 35.8062728,381.787644 C36.4720681,381.89073 37.2477085,381.816777 37.7722745,382.146205 C38.377543,382.524936 38.7586379,383.261108 39.2383692,383.840409 C50.4649787,397.374989 61.6915882,410.90957 72.9114724,424.448632 C73.2522162,424.858737 73.5301913,425.320385 74.1892615,426.260489" id="Fill-25" fill="#007B00"></path>
            <path d="M83.7462266,413.579285 C82.6814024,413.817952 81.8777404,414.258311 81.2904058,414.062223 C80.5820175,413.822434 79.9868368,413.100829 79.4600291,412.485672 C69.5997572,400.962398 59.7428478,389.434642 49.9374984,377.864307 C49.2022093,376.997037 47.5343584,375.846278 49.0766722,374.641735 C50.4766357,373.547002 51.1502771,375.343171 51.8810828,376.190273 C62.1022741,388.03177 72.2988062,399.896798 82.4942176,411.761826 C82.8360822,412.159605 83.0972443,412.629097 83.7462266,413.579285" id="Fill-27" fill="#007B00"></path>
            <path d="M67.9215942,429.648223 C66.8007267,429.889132 66.0049107,430.313803 65.4007631,430.124438 C64.6800453,429.899217 64.0366673,429.224673 63.5098595,428.613997 C53.9230793,417.490744 44.3531121,406.355165 34.8010788,395.201658 C34.1408878,394.42963 33.5244106,393.560118 33.14892,392.630099 C32.9561308,392.153884 33.1881503,391.319108 33.5333775,390.894436 C33.6992659,390.690504 34.5914765,391.016571 35.1194051,391.200334 C35.3379743,391.275408 35.475841,391.599234 35.637246,391.817733 C45.1018516,404.5702 55.736643,416.316455 66.6124209,427.854295 C66.967736,428.231905 67.2322607,428.695794 67.9215942,429.648223" id="Fill-29" fill="#007B00"></path>
            <path d="M77.552985,419.608498 C77.2974272,420.054459 77.1707692,420.596784 76.8950357,420.686424 C76.4388427,420.835451 75.7282126,420.892597 75.4054028,420.636001 C74.6151911,420.005157 73.9325828,419.216322 73.3004135,418.417402 C64.3581321,407.110385 55.4192133,395.801128 46.5419423,384.443689 C46.1238587,383.909208 46.2897471,382.916441 46.1843855,382.13881 C46.9914101,382.40437 48.1055525,382.421177 48.5595039,382.976948 C53.4453656,388.953722 58.2337118,395.008931 63.0355084,401.054056 C67.5391542,406.724931 72.0293497,412.405892 76.5173034,418.090214 C76.8883105,418.559706 77.1954283,419.07962 77.552985,419.608498" id="Fill-31" fill="#007B00"></path>
            <path d="M32.5760446,399.756735 C33.1880382,400.349482 33.7955485,400.852589 34.3010597,401.441974 C41.5160842,409.84016 48.6761862,418.283165 55.9506166,426.628687 C57.5086225,428.417013 59.5149755,429.80868 61.2097272,431.489437 C61.6860959,431.96229 61.7847323,432.817236 62.0559822,433.496262 C61.2612871,433.541082 60.3556261,433.8481 59.6976769,433.570215 C58.7897742,433.185882 58.0051669,432.425059 57.2754821,431.714659 C48.0966976,422.774149 39.8616837,413.004466 32.1030385,402.826919 C31.6681418,402.256582 31.5784724,401.375865 31.4921656,400.620644 C31.4697483,400.422315 32.0593246,400.153394 32.5760446,399.756735" id="Fill-33" fill="#007B00"></path>
            <g id="Group-37" transform="translate(7.335901, 479.639668)">
                <mask id="mask-2" fill="white">
                    <use xlink:href="#path-1"></use>
                </mask>
                <g id="Clip-36"></g>
                <path d="M533.664099,12.1473951 C533.664099,18.8558587 414.199793,24.2947902 266.831489,24.2947902 C119.464306,24.2947902 0,18.8558587 0,12.1473951 C0,5.43893144 119.464306,0 266.831489,0 C414.199793,0 533.664099,5.43893144 533.664099,12.1473951" id="Fill-35" fill="#CCDDEE" mask="url(#mask-2)"></path>
            </g>
            <path d="M447.918787,489.258195 C448.234871,489.258195 448.555439,489.201049 448.869282,489.077794 C450.201994,488.553397 450.857701,487.046318 450.332014,485.714037 L398.432484,353.889982 C397.906797,352.556581 396.400351,351.901085 395.067639,352.426602 C393.732686,352.950998 393.076979,354.456957 393.602666,355.790358 L445.503317,487.613294 C445.905708,488.635194 446.883105,489.258195 447.918787,489.258195" id="Fill-38" fill="#B3CF38"></path>
            <path d="M310.398985,489.258195 C311.434667,489.258195 312.412063,488.635194 312.814455,487.613294 L364.715106,355.790358 C365.240793,354.456957 364.585086,352.950998 363.250132,352.426602 C361.918542,351.902206 360.410975,352.556581 359.885288,353.889982 L307.985757,485.714037 C307.460071,487.046318 308.115778,488.553397 309.44961,489.077794 C309.761212,489.199929 310.082901,489.258195 310.398985,489.258195" id="Fill-40" fill="#B3CF38"></path>
            <path d="M334.413349,428.266193 C334.698049,428.266193 334.988354,428.219131 335.271933,428.119406 L413.914243,400.566188 C415.26713,400.091093 415.980002,398.612027 415.505875,397.259577 C415.031748,395.908248 413.551082,395.195607 412.197074,395.669581 L333.554764,423.222799 C332.201877,423.696773 331.491247,425.17696 331.964253,426.52941 C332.338623,427.597251 333.341799,428.266193 334.413349,428.266193" id="Fill-42" fill="#B3CF38"></path>
            <path d="M423.908795,428.266193 C424.980344,428.266193 425.98352,427.597251 426.359011,426.52941 C426.832017,425.17696 426.120266,423.696773 424.767379,423.222799 L346.12507,395.669581 C344.771062,395.195607 343.291516,395.908248 342.817389,397.259577 C342.343262,398.612027 343.055013,400.091093 344.4079,400.566188 L423.05021,428.119406 C423.33379,428.219131 423.624094,428.266193 423.908795,428.266193" id="Fill-44" fill="#B3CF38"></path>
            <path d="M350.918796,489.258195 C351.234881,489.258195 351.55657,489.201049 351.869292,489.077794 C353.202003,488.553397 353.857711,487.046318 353.333145,485.714037 L301.432493,353.889982 C300.906806,352.556581 299.40036,351.901085 298.067649,352.426602 C296.733816,352.950998 296.076988,354.456957 296.602675,355.790358 L348.504447,487.613294 C348.905718,488.635194 349.884235,489.258195 350.918796,489.258195" id="Fill-46" fill="#B3CF38"></path>
            <path d="M213.400228,489.258195 C214.434788,489.258195 215.413306,488.635194 215.814576,487.613294 L267.716349,355.790358 C268.240915,354.456957 267.585207,352.950998 266.251375,352.426602 C264.917542,351.902206 263.411096,352.556581 262.88653,353.889982 L210.985879,485.714037 C210.461313,487.046318 211.11702,488.553397 212.449732,489.077794 C212.762454,489.199929 213.084143,489.258195 213.400228,489.258195" id="Fill-48" fill="#B3CF38"></path>
            <path d="M237.41347,428.266193 C237.699291,428.266193 237.988475,428.219131 238.273175,428.119406 L316.915485,400.566188 C318.267251,400.091093 318.980123,398.612027 318.505996,397.259577 C318.031869,395.908248 316.551203,395.195607 315.197195,395.669581 L236.554886,423.222799 C235.203119,423.697894 234.491368,425.17696 234.964374,426.52941 C235.338744,427.597251 236.341921,428.266193 237.41347,428.266193" id="Fill-50" fill="#B3CF38"></path>
            <path d="M326.908804,428.266193 C327.980353,428.266193 328.984651,427.597251 329.359021,426.52941 C329.832027,425.17696 329.120276,423.696773 327.768509,423.222799 L249.125079,395.669581 C247.771071,395.195607 246.291526,395.908248 245.817399,397.259577 C245.343272,398.612027 246.055023,400.091093 247.40791,400.566188 L326.050219,428.119406 C326.33492,428.219131 326.624104,428.266193 326.908804,428.266193" id="Fill-52" fill="#B3CF38"></path>
            <path d="M234.340948,338.786694 C226.834498,348.861155 230.664502,363.319032 242.187021,368.32881 C277.417009,383.650595 349.313938,406.93469 399.954734,370.012929 C402.718793,367.998261 405.421205,365.806553 408.048519,363.416516 C408.953059,362.599667 409.848632,361.757048 410.734117,360.890897 C461.630471,311.165125 412.988182,235.622916 398.327234,215.391077 C396.116884,212.342183 392.078398,211.235124 388.637334,212.764614 C388.61828,212.773578 388.598104,212.782542 388.579049,212.791506 C387.890837,213.091801 387.203745,213.397699 386.520015,213.704717 C308.584973,248.837032 257.046362,308.312319 234.340948,338.786694" id="Fill-54" fill="#00B100"></path>
            <path d="M407.590532,247.536574 C416.622483,265.624887 426.537677,292.688445 422.49695,318.884732 C418.976305,341.706058 410.741291,358.196531 399.955182,370.013377 C402.718121,367.998709 405.420533,365.807001 408.047846,363.416964 C416.466682,351.421957 422.055328,336.653701 424.740927,319.227607 C426.571303,307.374904 425.79118,294.390492 422.434181,280.631811 C419.755308,269.655343 415.437726,258.165685 409.599127,246.479938 C400.123313,227.513149 389.620784,214.104065 388.579498,212.790833 C387.891285,213.092249 387.204193,213.397027 386.519343,213.705166 C386.557452,213.84859 386.629188,213.987533 386.730066,214.110788 C386.836548,214.24637 397.76837,227.866108 407.590532,247.536574" id="Fill-56" fill="#007B00"></path>
            <path d="M371.245505,251.30853 C371.245505,251.30853 394.496782,323.59343 374.39178,349.534242 C356.16199,373.057005 320.676444,374.660447 263.189389,347.469152 C254.897211,343.547384 251.075052,340.627348 255.795026,333.285799 C293.594042,289.026971 331.812263,252.877237 371.245505,251.30853" id="Fill-58" fill="#007B00"></path>
            <path d="M214.195932,285.133776 C214.702564,291.070212 219.679216,295.551111 225.532386,295.551111 C225.858558,295.551111 226.182489,295.536545 226.513145,295.511894 C234.861367,294.798132 242.660363,293.836739 249.884355,292.624352 C250.250878,292.564965 250.618523,292.502217 250.978321,292.437228 C261.594058,290.610805 270.943214,288.24878 278.928275,285.361238 C291.10538,280.959895 299.005254,275.792125 302.408208,269.995753 C316.537865,245.908256 329.556742,213.564878 330.103725,212.197862 C332.444096,206.361151 329.608301,199.730003 323.768581,197.390388 C317.92662,195.054135 311.297809,197.890133 308.956317,203.727965 C308.893548,203.884835 305.701317,211.809047 300.883829,222.513232 C298.138824,228.607658 294.86477,235.605212 291.344125,242.583718 C291.15694,242.949002 290.973118,243.312046 290.789295,243.67509 C288.289761,248.582902 285.677018,253.461581 283.039617,257.983939 C281.900816,259.030491 277.675145,261.826151 268.804599,264.764115 C267.29367,265.264981 265.714367,265.749039 264.067813,266.211807 C263.548851,266.358594 263.024285,266.50538 262.495236,266.645443 C255.127773,268.632098 246.539686,270.263554 237.056025,271.487145 C236.662601,271.54205 236.264693,271.590232 235.864543,271.641775 C232.223965,272.092218 228.45785,272.486636 224.577407,272.817185 C218.308395,273.352786 213.659036,278.866791 214.195932,285.133776" id="Fill-60" fill="#00B100"></path>
            <path d="M290.789295,243.67509 C294.324512,248.539202 296.748948,254.101389 297.94043,260.033343 C298.076055,260.728056 299.142,260.430001 299.001892,259.73977 C297.748762,253.487352 295.137141,247.661847 291.344125,242.583718 C291.15694,242.949002 290.973118,243.312046 290.789295,243.67509" id="Fill-62" fill="#88E0F2"></path>
            <path d="M235.864655,271.641663 C239.433498,277.250911 247.92519,277.313659 253.628164,275.086095 C258.108272,273.339228 261.715224,270.168199 264.067925,266.211695 C263.548963,266.358482 263.023276,266.505268 262.495348,266.645331 C260.488995,269.624754 257.681221,272.067455 254.279388,273.624957 C249.174958,275.960089 240.667573,276.581969 237.055017,271.487033 C236.662713,271.541938 236.264805,271.59012 235.864655,271.641663" id="Fill-64" fill="#88E0F2"></path>
            <path d="M234.791873,278.051736 C241.656066,280.512365 247.164009,285.96026 249.884355,292.623904 C250.250878,292.564517 250.618523,292.501769 250.978321,292.43678 C248.164944,285.364152 242.391355,279.605876 235.086661,276.986136 C234.414141,276.747468 234.127198,277.811948 234.791873,278.051736" id="Fill-66" fill="#88E0F2"></path>
            <path d="M283.57046,258.051169 C286.045335,259.241146 288.094281,261.029472 289.644441,263.292892 C290.045712,263.880036 289.091853,264.431325 288.692825,263.849783 C287.248026,261.739872 285.315651,260.110657 283.013389,259.003599 C282.374494,258.69546 282.933807,257.745271 283.57046,258.051169" id="Fill-68" fill="#171612"></path>
            <path d="M285.814325,322.392697 C285.814325,322.392697 295.129855,340.323019 316.011618,336.429264 C316.29856,336.377721 316.588864,336.322816 316.879169,336.263429 C324.011249,334.893051 331.999672,332.843648 340.61354,329.820525 C340.881427,329.725282 341.149314,329.630039 341.421685,329.533676 C347.845377,327.242243 354.60645,324.409606 361.620839,320.91251 C361.620839,320.91251 360.190612,317.609261 358.890406,312.489674 C358.814187,312.184896 358.736847,311.872275 358.659507,311.556293 C357.633913,307.273723 356.748428,301.874009 356.807834,296.121336 C356.811197,295.84233 356.814559,295.563325 356.825768,295.283198 C356.884053,292.932379 357.111589,290.526655 357.556574,288.11981 C357.806527,286.771842 358.184259,285.336475 358.677441,283.826034 C358.76599,283.558234 358.853417,283.290433 358.949812,283.01703 C359.188557,282.305509 359.456444,281.581663 359.746749,280.846612 C361.825958,275.535418 365.009222,269.544077 368.602723,263.504555 C368.749557,263.254683 368.900874,263.00481 369.047708,262.758299 C371.928337,257.96926 375.047712,253.167896 378.061725,248.679153 C378.222009,248.440485 378.384535,248.200697 378.539214,247.965391 C380.839235,244.561297 383.066398,241.343207 385.072751,238.459027 C385.285716,238.157611 385.495318,237.857315 385.700437,237.562623 C386.163355,236.898163 386.611702,236.251632 387.045478,235.62639 C387.505034,234.969774 387.953381,234.337809 388.383794,233.734977 C388.551924,233.49631 388.721175,233.257642 388.885943,233.03018 C391.172513,229.841222 392.935637,227.487041 393.285348,226.120025 C393.57229,224.992797 393.840177,223.82411 394.027362,222.630773 C394.071076,222.340562 394.111427,222.045869 394.148416,221.756779 C394.230239,221.039655 394.281799,220.312448 394.277586,219.581878 C394.277586,219.210991 394.262744,218.843466 394.233602,218.472578 C394.178679,217.730804 394.059867,216.981186 393.864836,216.228207 C393.769563,215.849476 393.652992,215.470745 393.512884,215.092015 C393.406402,214.799563 393.285348,214.501509 393.153086,214.206816 C393.046603,213.975992 392.932275,213.744047 392.806737,213.513223 C391.804682,211.613967 390.190633,209.737121 387.713515,207.933108 C387.485979,207.767273 387.251718,207.602559 387.00849,207.436724 C386.68568,207.217105 386.347178,207.000848 385.998588,206.78347 C385.634306,206.556007 385.256574,206.331906 384.858666,206.111167 C383.961972,205.603578 382.987938,205.104953 381.926476,204.616413 C380.578072,203.995653 379.339514,203.378255 378.205196,202.76758 C378.164845,202.74629 378.12001,202.720519 378.076296,202.699229 C378.002319,202.658891 377.929462,202.617432 377.858848,202.580455 C375.855857,201.486843 374.188006,200.421242 372.795889,199.41839 C372.478683,199.197651 372.186137,198.97355 371.899195,198.75281 C370.786173,197.897865 369.881633,197.096704 369.142982,196.354929 C368.933379,196.152118 368.738348,195.950427 368.554526,195.752098 C366.386768,193.42705 365.972047,191.921091 365.972047,191.921091 L349.667908,192.321111 L348.606446,192.346883 L339.326784,192.575466 C339.326784,192.575466 335.410472,194.55876 331.078319,195.626601 C330.628851,195.737531 330.177142,195.837256 329.725432,195.924656 C329.156031,196.032224 328.589993,196.124105 328.031801,196.181251 C327.696662,196.221589 327.366006,196.251843 327.038713,196.26641 C326.66098,196.292181 326.28549,196.300025 325.914482,196.28882 C322.04861,196.17789 318.767831,195.898884 316.342273,197.640149 C316.041881,197.860888 315.74373,198.114122 315.467997,198.400972 C314.666576,199.226784 313.987331,200.351771 313.432501,201.886863 C313.310327,202.21405 313.207207,202.540117 313.116417,202.87851 C313.087274,202.978235 313.061494,203.073478 313.034593,203.173203 C312.987517,203.34576 312.947166,203.52168 312.906814,203.693117 C312.863101,203.881362 312.826112,204.071848 312.78464,204.263454 C312.22981,207.114019 312.326205,210.137141 312.245503,212.815148 C312.205151,214.085801 312.131174,215.28026 311.926055,216.344739 C311.874495,216.628227 311.811727,216.902751 311.73887,217.16831 C311.484433,218.071438 311.108943,218.854671 310.544026,219.478792 C308.942306,221.242467 306.108753,223.31316 303.721305,226.238799 C303.621548,226.358693 303.526274,226.476346 303.429879,226.601842 C303.268474,226.810256 303.110432,227.020911 302.955752,227.232687 C302.892984,227.317845 302.831336,227.403003 302.768567,227.490403 C301.560272,229.209258 300.555975,231.197034 300.0202,233.547853 C299.987695,233.687916 299.957431,233.826859 299.931652,233.970283 C299.8913,234.165251 299.854312,234.360219 299.821807,234.56191 C299.809477,234.642587 299.796027,234.723263 299.789301,234.803939 C299.707478,235.340661 299.652556,235.895311 299.630138,236.461166 C299.546073,238.249492 299.710841,240.046782 300.041497,241.849675 C300.09754,242.205995 300.171517,242.555593 300.244374,242.915275 C300.479756,244.039142 300.77006,245.163008 301.085024,246.291357 C301.206078,246.72051 301.331615,247.150784 301.456031,247.579938 C301.839368,248.862916 302.246243,250.143653 302.640788,251.422149 C302.728216,251.697794 302.812281,251.976799 302.897467,252.252444 C302.996103,252.575149 303.095861,252.902337 303.194497,253.229524 L303.191134,253.229524 C303.331243,253.68557 303.463505,254.141615 303.587922,254.592058 L303.587922,254.59654 C303.984709,256.007256 304.326573,257.406767 304.572043,258.798434 C304.639295,259.154755 304.694218,259.515557 304.745778,259.875239 C304.862348,260.712257 304.937446,261.545912 304.958743,262.373966 C305.039445,265.197638 304.436418,268.967017 303.434363,273.117368 C303.378319,273.334746 303.326759,273.551003 303.271837,273.767261 C303.258386,273.826648 303.242694,273.881552 303.228123,273.940939 C302.74615,275.846918 302.183474,277.830212 301.571481,279.837037 C301.434735,280.2886 301.292385,280.736802 301.148914,281.191727 L301.148914,281.195089 C300.225319,284.108402 299.199725,287.039643 298.160681,289.835303 C298.04299,290.144562 297.926419,290.452701 297.81097,290.758599 C296.862716,293.266289 295.901012,295.647363 294.989746,297.780804 C294.38672,299.196002 293.810594,300.576464 293.259127,301.92107 L293.259127,301.924432 C293.255764,301.927793 293.259127,301.932275 293.259127,301.932275 C292.86234,302.901512 292.479003,303.841616 292.107996,304.774997 C292.078853,304.845588 292.053073,304.91506 292.027294,304.98117 L292.027294,304.984531 C292.023931,304.984531 292.023931,304.984531 292.027294,304.989013 L292.027294,304.992375 L292.027294,304.995736 C291.939866,305.205271 291.859163,305.4036 291.780703,305.608652 C283.300219,327.10218 285.814325,322.392697 285.814325,322.392697" id="Fill-70" fill="#00B100"></path>
            <path d="M320.91149,304.015966 C324.708989,302.543623 328.950352,302.795737 332.881235,303.539752 C337.123718,304.339792 341.231698,305.786364 345.053856,307.797671 C347.211526,308.937225 349.6326,310.494727 351.561613,311.972673 C351.210782,312.019734 350.855467,312.109374 350.524811,312.230389 C346.096263,308.954032 340.697044,306.28611 335.335935,304.91125 C331.512655,303.929688 327.357599,303.31453 323.444651,304.120173 C319.267177,304.976239 316.10521,307.749489 314.308459,311.559206 C313.59895,313.069647 313.119219,314.640595 312.795288,316.24852 C312.553181,316.235074 312.309952,316.220507 312.065603,316.207061 C313.096801,310.931724 315.469678,306.124757 320.91149,304.015966" id="Fill-72" fill="#88E0F2"></path>
            <path d="M292.385187,304.082749 C296.11095,305.118095 299.319994,307.632509 301.095448,311.219245 C301.654761,312.348714 302.162514,313.712369 302.394534,315.095072 C302.668026,315.144374 302.939275,315.191435 303.212767,315.235135 C303.054725,314.116871 302.730794,313.023258 302.35082,312.042816 C300.657189,307.705341 297.016611,304.555602 292.692304,303.319685 C292.590305,303.57516 292.488306,303.829514 292.385187,304.082749" id="Fill-74" fill="#88E0F2"></path>
            <path d="M349.402823,193.495289 C348.865927,193.447107 348.942146,192.613451 349.477921,192.662753 C350.014816,192.712056 349.939718,193.544591 349.402823,193.495289" id="Fill-76" fill="#88E0F2"></path>
            <path d="M363.288802,125.330485 C363.288802,125.330485 364.539691,107.151412 376.036429,106.958685 C387.534289,106.764837 385.088556,120.076437 385.088556,120.076437 C385.088556,120.076437 391.77341,116.316022 389.921736,124.822897 C388.070063,133.329771 371.907153,132.029985 371.907153,132.029985 L363.288802,125.330485 Z" id="Fill-78" fill="#171612"></path>
            <path d="M364.035412,121.255545 C364.035412,121.255545 373.679357,123.800212 376.755017,132.122203 C376.755017,132.122203 375.385317,133.875793 372.119109,134.339682 C372.119109,134.339682 370.726992,128.771892 363.288914,125.330821 C363.288914,125.330821 362.246508,122.668502 364.035412,121.255545" id="Fill-80" fill="#00B100"></path>
            <path d="M321.548591,186.874 C329.612112,189.125095 356.993786,191.700015 378.286907,182.577984 C378.211809,178.907209 378.490905,174.71428 379.29905,169.896108 C381.206767,158.54203 382.673983,126.486622 359.229917,122.906609 C335.78473,119.326595 317.695049,134.721214 322.732227,155.907723 C324.797986,164.602842 323.384572,176.128357 321.548591,186.874" id="Fill-82" fill="#171612"></path>
            <path d="M329.117698,155.530449 C329.117698,155.530449 326.359243,155.653705 325.682239,159.137355 C325.004114,162.621005 326.520648,168.546236 330.099578,167.97926 C333.678508,167.412284 329.117698,155.530449 329.117698,155.530449" id="Fill-84" fill="#632829"></path>
            <path d="M328.753192,165.629186 C326.863409,165.637068 325.334546,167.181124 325.342362,169.069175 C325.351359,170.957226 326.894793,172.486716 328.783455,172.477791 C330.673238,172.469908 332.203222,170.926973 332.194294,169.038922 C332.186409,167.14975 330.642974,165.620261 328.753192,165.629186 M328.79018,173.893002 C326.120274,173.905275 323.939065,171.743821 323.926693,169.074778 C323.915527,166.405735 326.077681,164.226352 328.746466,164.213984 C331.416373,164.202822 333.597581,166.363156 333.609963,169.032199 C333.62224,171.701242 331.458966,173.881744 328.79018,173.893002" id="Fill-86" fill="#FFFFFF"></path>
            <line x1="337.672047" y1="183.167818" x2="337.672047" y2="183.171179" id="Fill-88" fill="#B15F4F"></line>
            <path d="M366.326353,194.111342 C366.326353,194.111342 361.155791,202.942042 350.825876,203.999799 C337.703879,205.341044 336.447387,199.660083 336.447387,199.660083 C337.07171,197.914336 337.476343,196.174192 337.709484,194.300708 C337.796911,193.590307 337.860801,192.860859 337.902273,192.103397 C338.016602,190.038306 337.969525,187.776007 337.809241,185.157387 C337.771132,184.54447 337.727418,183.906903 337.675858,183.250287 L337.672495,183.171852 C346.794115,181.404815 354.352125,177.702667 359.685213,171.248558 L361.073968,170.496699 L362.009892,169.986869 L362.156726,170.520229 L361.914619,172.192023 C360.7534,180.047884 362.264329,186.658863 366.326353,194.111342" id="Fill-90" fill="#B15F4F"></path>
            <path d="M353.140804,177.93293 C351.054869,182.163957 346.311358,189.605231 337.901488,192.102837 C338.016938,190.038867 337.969861,187.775447 337.808456,185.156826 C337.771468,184.54391 337.727754,183.906343 337.676194,183.249727 C337.854412,183.27886 338.035993,183.300149 338.218694,183.320319 C343.125852,183.848076 348.579994,181.531992 353.140804,177.93293" id="Fill-92" fill="#171612"></path>
            <path d="M373.532075,157.429033 C373.638557,162.335724 369.614643,168.435754 363.197676,168.752857 L363.16405,168.755098 L363.161808,168.755098 L363.026183,168.764062 C362.928668,169.04867 362.814339,169.327676 362.695527,169.613405 C362.645088,169.73666 362.590166,169.862157 362.536364,169.984292 C362.533001,169.996617 362.527397,170.008943 362.519551,170.019027 C358.704118,178.442984 346.928283,183.607392 340.505712,183.923374 C338.212417,184.033184 336.657774,183.550246 336.161229,183.455003 C329.316091,182.124964 327.839909,172.95251 328.754537,165.895569 C328.890162,164.871427 329.073984,163.894347 329.297037,162.988979 C329.31385,162.92623 329.328421,162.864603 329.345234,162.802975 C329.345234,162.802975 326.84682,153.014243 326.218013,148.733914 C325.004114,140.438815 329.592946,131.881518 347.804802,129.820909 C366.018899,127.75918 370.639116,138.98664 372.05365,144.965655 C372.291274,145.961784 372.219539,151.928474 371.243263,152.912277 C372.992937,153.756017 373.496207,155.779649 373.532075,157.429033" id="Fill-94" fill="#B15F4F"></path>
            <path d="M330.792498,159.950169 C331.034605,161.30486 331.800158,162.300989 332.504063,162.175492 C333.207968,162.049996 333.583458,160.851055 333.341351,159.496365 C333.101485,158.141674 332.334812,157.144425 331.630907,157.269921 C330.927002,157.395418 330.551512,158.595479 330.792498,159.950169" id="Fill-96" fill="#171612"></path>
            <path d="M335.65796,158.459785 C335.726333,158.428411 335.783497,158.376868 335.822727,158.306276 C335.920243,158.131477 335.857474,157.909617 335.681498,157.812133 C335.534664,157.730337 332.048766,155.834442 329.350838,158.152767 C329.1984,158.283866 329.181587,158.51357 329.311608,158.665958 C329.442749,158.818347 329.672527,158.835155 329.826086,158.705176 C332.140678,156.714039 335.29592,158.430652 335.327304,158.44746 C335.433786,158.506847 335.55484,158.506847 335.65796,158.459785" id="Fill-98" fill="#171612"></path>
            <path d="M342.638163,158.048336 C342.879149,159.403027 343.644702,160.400276 344.348607,160.273659 C345.052511,160.148162 345.428002,158.949222 345.185895,157.594531 C344.946029,156.239841 344.179356,155.243712 343.475451,155.369208 C342.771546,155.494705 342.397176,156.693645 342.638163,158.048336" id="Fill-100" fill="#171612"></path>
            <path d="M348.128732,156.961782 C348.199347,156.939372 348.264357,156.894552 348.312555,156.831804 C348.431367,156.66821 348.39662,156.440747 348.234094,156.321974 C348.09959,156.222249 344.881579,153.901683 341.91128,155.860326 C341.74315,155.970135 341.697194,156.196477 341.807039,156.364553 C341.919126,156.532629 342.1433,156.578569 342.313671,156.46876 C344.863645,154.785761 347.774538,156.887829 347.80256,156.907998 C347.900075,156.980831 348.021129,156.995397 348.128732,156.961782" id="Fill-102" fill="#171612"></path>
            <path d="M337.512211,172.98915 C337.718451,172.973463 337.932536,172.943209 338.157831,172.897269 C340.342402,172.445705 341.691926,170.217021 341.746849,170.122898 C341.94188,169.795711 341.834276,169.37216 341.506983,169.178312 C341.17969,168.983345 340.758244,169.089793 340.563213,169.41698 C340.5464,169.442752 339.456916,171.219873 337.878735,171.54594 C336.24451,171.884332 335.481199,170.974482 335.448694,170.935264 C335.209949,170.642813 334.778415,170.59239 334.482506,170.826575 C334.186597,171.060761 334.130554,171.485432 334.361452,171.784607 C334.408529,171.845114 335.437485,173.146021 337.512211,172.98915" id="Fill-104" fill="#632829"></path>
            <path d="M362.507334,164.93877 C362.771858,164.888347 362.991548,164.679933 363.038625,164.397566 C363.822111,159.762036 369.287461,157.642041 369.343505,157.621872 C369.684248,157.491893 369.857983,157.109801 369.727962,156.768047 C369.599063,156.425172 369.217968,156.252615 368.876103,156.381473 C368.621666,156.476716 362.641838,158.782715 361.732814,164.176826 C361.671166,164.537629 361.914395,164.879383 362.275314,164.93989 C362.353775,164.953336 362.432235,164.953336 362.507334,164.93877" id="Fill-106" fill="#632829"></path>
            <path d="M368.211204,162.234879 C368.293028,162.219192 368.374851,162.188938 368.448828,162.140756 C368.755946,161.942427 368.844495,161.533443 368.647222,161.225304 C368.59342,161.140145 367.293214,159.169177 364.603132,159.336132 C364.239971,159.360783 363.960875,159.673404 363.984413,160.038689 C364.00683,160.402853 364.320673,160.680738 364.686076,160.659449 C366.606122,160.538434 367.522992,161.927861 367.533079,161.941307 C367.682155,162.174372 367.954526,162.283061 368.211204,162.234879" id="Fill-108" fill="#632829"></path>
            <path d="M332.457325,164.404737 C332.459564,165.133065 330.870174,165.747102 328.753976,165.895009 C328.889601,164.870867 329.073423,163.893787 329.297597,162.988419 C331.130215,163.181145 332.456202,163.739157 332.457325,164.404737" id="Fill-110" fill="#632829"></path>
            <path d="M343.799489,164.251564 C343.801735,165.082979 345.877582,165.749679 348.432039,165.738474 C350.987617,165.728389 353.05786,165.046002 353.054501,164.214587 C353.050013,163.383172 350.975288,162.716472 348.42083,162.727677 C345.865252,162.736641 343.796131,163.420149 343.799489,164.251564" id="Fill-112" fill="#632829"></path>
            <path d="M363.196891,168.754425 L363.164386,168.755546 L363.161023,168.756666 L363.025399,168.76451 C362.929004,169.049118 362.814675,169.329244 362.695863,169.613853 C362.644304,169.737108 362.590502,169.862605 362.5367,169.98586 C362.531096,169.997065 362.526612,170.008271 362.519887,170.019476 C361.785719,169.919751 360.859882,169.665396 360.018111,169.093938 C359.524929,168.755546 359.057527,168.308464 358.678674,167.704512 C358.481401,167.396373 358.574433,166.986268 358.884914,166.792421 C359.193152,166.592971 359.602269,166.684853 359.799542,166.996353 C360.22435,167.663053 360.815048,168.082122 361.409107,168.344321 C361.813741,168.52024 362.217253,168.624447 362.57481,168.680472 C362.80795,168.721931 363.022036,168.7421 363.196891,168.754425" id="Fill-114" fill="#632829"></path>
            <path d="M361.571409,168.635092 C362.026481,168.769552 362.55441,168.814372 362.982581,168.83118 C362.98146,168.85359 362.978098,168.878241 362.978098,168.901772 C362.987065,170.790943 364.530499,172.319312 366.419161,172.311469 C368.307823,172.302505 369.837807,170.759569 369.82884,168.871518 C369.822115,167.16723 368.564502,165.762117 366.932519,165.506642 C366.514435,165.021463 366.49538,164.545248 366.925793,164.077998 C369.342384,164.337955 371.233287,166.379515 371.245669,168.864795 C371.257947,171.533838 369.094672,173.714341 366.424766,173.726719 C363.754859,173.738992 361.574772,171.576417 361.562442,168.907374 C361.562442,168.816613 361.566926,168.725853 361.571409,168.635092" id="Fill-116" fill="#FFFFFF"></path>
            <path d="M339.258074,175.997146 C340.193999,175.798816 340.692785,175.137718 340.723048,175.098501 C340.865399,174.905774 340.822806,174.633491 340.631137,174.492308 C340.438348,174.350003 340.168219,174.389221 340.024748,174.580827 C339.992243,174.622286 339.344381,175.441375 338.124877,175.09626 C337.893979,175.03127 337.654113,175.166852 337.590224,175.396555 C337.524092,175.627379 337.658596,175.868288 337.889495,175.932157 C338.417424,176.081184 338.874738,176.077822 339.258074,175.997146" id="Fill-118" fill="#632829"></path>
            <path d="M366.701844,134.802226 C362.685776,130.835639 357.158778,127.707189 350.608428,128.236067 C341.416193,128.977841 332.979423,132.384177 328.384987,137.467908 C326.170152,139.911729 324.845287,142.738764 324.753376,145.850406 C324.466434,155.422881 326.483995,153.511299 326.483995,153.511299 C326.483995,153.511299 326.424589,153.29168 326.665576,151.254602 L326.668938,151.254602 C326.811289,150.025408 327.063484,148.136236 327.506226,145.239731 C328.565446,138.329576 350.471682,137.048839 349.150179,141.521895 C349.150179,141.521895 349.091894,142.077666 349.173717,142.93037 C349.257782,143.842461 349.505494,145.095186 350.153355,146.356874 C350.330453,146.378164 350.499704,146.403936 350.658867,146.428587 C352.863613,146.780425 354.686144,147.369811 356.194832,148.09926 C356.194832,148.09926 356.199315,148.102621 356.202678,148.105983 C356.394346,148.237082 359.767037,150.58566 359.370249,154.083877 C358.966737,157.686301 357.749475,162.403627 360.17167,161.461282 C362.592744,160.515576 363.343725,157.582094 363.343725,157.582094 L363.347087,157.578732 C364.606943,155.946156 366.176157,154.305737 368.545671,153.464238 C369.219313,147.144589 369.304499,140.708408 366.701844,134.802226" id="Fill-120" fill="#171612"></path>
            <path d="M368.072217,138.857446 C361.459098,136.750897 351.008129,141.83911 349.17439,142.930482 C349.257334,143.842573 349.506167,145.094177 350.154028,146.355866 C350.330004,146.378276 350.499255,146.404048 350.658418,146.428699 C352.864286,146.780537 354.686816,147.369923 356.194383,148.099372 C356.194383,148.099372 356.198867,148.102733 356.202229,148.106095 C356.393898,148.237194 359.767709,150.585772 359.369801,154.083989 C358.966289,157.686413 356.010561,176.9154 359.780039,179.82311 C367.425476,185.720328 364.325157,157.536265 364.325157,157.536265 C365.586133,155.903689 366.17683,154.305849 368.545223,153.46435 C370.911374,148.334678 369.920527,143.509783 368.072217,138.857446" id="Fill-122" fill="#171612"></path>
            <path d="M366.592335,138.51065 C366.592335,138.51065 370.684623,144.138947 368.544887,153.46491 C368.544887,153.46491 371.70125,152.596519 373.217783,153.11083 C374.734317,153.625142 376.18472,148.085365 374.554978,143.045334 C372.926358,138.005302 365.612697,131.971383 365.612697,131.971383 C365.612697,131.971383 365.200218,136.875833 366.592335,138.51065" id="Fill-124" fill="#171612"></path>
            <path d="M336.800684,166.615157 C336.698685,166.62188 336.593324,166.59947 336.49805,166.545686 L333.964889,165.138332 C333.792276,165.043089 333.683552,164.863808 333.679068,164.666599 C333.674585,164.46939 333.774342,164.284507 333.941351,164.1803 C335.887177,162.974636 337.037187,161.158298 337.563995,158.464604 C337.621159,158.163188 337.912585,157.964858 338.21634,158.025366 C338.516733,158.083632 338.714005,158.374963 338.654599,158.6775 C338.135638,161.335337 337.057363,163.241317 335.286392,164.60161 L337.039429,165.574208 C337.306196,165.724356 337.403711,166.062748 337.253515,166.330549 C337.158241,166.501986 336.984507,166.603952 336.800684,166.615157" id="Fill-126" fill="#632829"></path>
            <path d="M339.496707,159.842937 C339.728727,162.914241 342.417688,165.224722 345.492228,164.991657 C348.564526,164.759713 350.874634,162.070501 350.641493,158.998076 C350.408353,155.926772 347.720512,153.61629 344.647094,153.848235 C341.574796,154.0813 339.263567,156.770512 339.496707,159.842937 M338.456542,159.921372 C338.180809,156.276369 340.922451,153.086291 344.567512,152.810647 C348.213694,152.535003 351.405925,155.274638 351.681658,158.919641 C351.957392,162.564644 349.21575,165.754721 345.570688,166.030366 C341.924506,166.30713 338.733396,163.565255 338.456542,159.921372" id="Fill-128" fill="#FFFFFF"></path>
            <path d="M323.815434,161.030112 C324.047453,164.101416 326.736415,166.411898 329.810954,166.178833 C332.883252,165.946888 335.19336,163.257676 334.96022,160.185251 C334.7282,157.113947 332.039239,154.803465 328.96582,155.03653 C325.893522,155.268475 323.582293,157.957687 323.815434,161.030112 M322.775269,161.108547 C322.499535,157.463544 325.240056,154.273467 328.886239,153.997822 C332.532421,153.722178 335.724652,156.462933 336.000385,160.107936 C336.276118,163.751819 333.535597,166.941896 329.888294,167.217541 C326.242112,167.494305 323.051002,164.75355 322.775269,161.108547" id="Fill-130" fill="#FFFFFF"></path>
            <path d="M365.0118,156.601764 L365.546454,155.814049 C365.271841,155.632527 358.201409,151.180761 349.906989,155.031936 L350.346369,155.976522 C358.119585,152.368496 364.949031,156.561426 365.0118,156.601764" id="Fill-132" fill="#FFFFFF"></path>
            <path d="M338.681164,159.820975 L339.242719,158.943619 C338.454749,158.437151 336.571691,157.854489 335.083179,159.270807 L335.802776,160.026027 C337.063752,158.824846 338.615033,159.779516 338.681164,159.820975" id="Fill-134" fill="#FFFFFF"></path>
            <path d="M342.446606,152.144843 C341.264091,153.041247 339.688151,151.641736 340.467154,150.380048 C340.876271,149.721191 341.554396,149.101551 342.668538,148.734026 C347.507323,147.136186 351.281284,150.094319 351.281284,150.094319 C351.281284,150.094319 346.079338,150.217574 343.736725,151.354887 C343.196467,151.617085 342.781746,151.890488 342.446606,152.144843" id="Fill-136" fill="#171612"></path>
            <path d="M334.356409,153.440483 C335.737317,153.980567 336.873877,152.204566 335.781031,151.203955 C335.209389,150.680679 334.387793,150.269454 333.214244,150.217911 C328.124385,149.996051 326.931782,153.36653 326.931782,153.36653 C326.931782,153.36653 330.336977,152.572092 332.899281,153.030378 C333.49222,153.136826 333.964105,153.286974 334.356409,153.440483" id="Fill-138" fill="#171612"></path>
            <path d="M369.855293,196.457344 C369.855293,196.457344 369.668108,184.000689 361.921792,181.767523 C361.921792,181.767523 355.508188,190.492895 337.806327,188.737064 C337.806327,188.737064 333.285868,189.272665 331.978936,198.017087 C331.978936,198.017087 332.691808,207.819265 348.213582,206.593432 C363.737598,205.3676 369.855293,196.457344 369.855293,196.457344" id="Fill-140" fill="#00B100"></path>
            <path d="M360.087156,184.430515 C363.41277,188.917017 364.690559,194.321213 365.444903,199.763506 C365.542419,200.457098 364.476474,200.741707 364.380079,200.041391 C363.638065,194.688739 362.400627,189.38875 359.128815,184.972839 C358.706247,184.404743 359.670194,183.868021 360.087156,184.430515" id="Fill-142" fill="#88E0F2"></path>
            <path d="M353.895036,187.552354 C356.155825,192.632724 356.798083,198.08286 356.680391,203.601348 C356.66582,204.309507 355.564007,204.296061 355.579699,203.586781 C355.692907,198.274467 355.114539,192.990165 352.936694,188.094678 C352.650873,187.451509 353.605852,186.904702 353.895036,187.552354" id="Fill-144" fill="#88E0F2"></path>
            <path d="M347.652476,189.121509 C347.843023,194.579489 348.191613,200.035228 347.921484,205.49769 C347.886737,206.204729 346.786045,206.192403 346.820792,205.484244 C347.0898,200.021782 346.742331,194.564923 346.551784,189.105822 C346.526004,188.397663 347.628938,188.414471 347.652476,189.121509" id="Fill-146" fill="#88E0F2"></path>
            <path d="M340.444625,189.439957 C338.720731,193.974641 337.846454,198.700931 337.846454,203.552718 C337.846454,204.261997 336.74352,204.24631 336.74464,203.537031 C336.74464,198.592242 337.627885,193.757263 339.387647,189.134059 C339.636479,188.476322 340.697941,188.775497 340.444625,189.439957" id="Fill-148" fill="#88E0F2"></path>
            <path d="M367.806235,199.119664 C360.940921,203.053757 353.964641,206.661783 345.829385,206.371572 C340.30687,206.174363 333.48527,204.406206 331.494609,198.584062 C331.264832,197.91288 332.333018,197.639476 332.561675,198.305056 C334.535523,204.08126 341.989292,205.360877 347.303326,205.286923 C354.671909,205.182716 361.031711,201.731561 367.263735,198.161632 C367.879091,197.808673 368.421591,198.767825 367.806235,199.119664" id="Fill-150" fill="#88E0F2"></path>
            <path d="M365.850209,236.702523 C367.133602,240.963804 368.864222,245.026755 370.8773,248.957487 C371.066727,248.736747 371.258395,248.518249 371.453426,248.29863 C366.687497,238.866218 363.47397,228.399581 364.579145,217.761506 C365.285292,210.979089 367.975374,204.286312 372.444273,199.167845 C372.258209,199.028903 372.077749,198.892201 371.89841,198.753258 C371.863663,198.725246 371.830037,198.700595 371.79529,198.673703 C370.394206,200.277145 369.160131,202.030736 368.108757,203.901979 C362.457343,213.942825 362.594089,225.901975 365.850209,236.702523" id="Fill-152" fill="#88E0F2"></path>
            <path d="M354.531016,205.023044 C355.067911,208.18511 355.59584,211.613855 354.065856,214.594398 C352.910241,216.845493 350.729033,218.305511 348.155521,218.111664 C341.627588,217.6164 339.938441,210.368974 339.520357,205.066744 C339.480006,204.54795 340.281427,204.400044 340.322899,204.922199 C340.69951,209.710117 341.870817,216.080188 347.499814,217.199573 C350.122644,217.721728 352.426027,216.28524 353.499818,213.901926 C354.743981,211.142122 354.217173,208.039444 353.729595,205.16759 C353.642168,204.649916 354.443588,204.506492 354.531016,205.023044" id="Fill-154" fill="#88E0F2"></path>
            <path d="M310.857644,219.086279 C311.990841,219.810125 313.146456,220.490272 314.325609,221.12896 C316.300577,222.203524 318.43583,223.177243 320.703345,223.372211 C325.381846,223.773352 327.895952,220.068962 328.159356,215.796476 C328.458628,210.955894 327.148333,205.828463 325.453582,201.330756 C324.79227,199.572684 324.013267,197.861673 323.130023,196.205566 C322.813939,196.201084 322.506821,196.199964 322.200824,196.202205 C323.270132,198.155245 324.188122,200.193444 324.944708,202.297752 C326.483659,206.569117 327.721097,211.539678 327.318705,216.110218 C327.125916,218.331059 326.359243,220.721096 324.297967,221.889783 C322.141418,223.114495 319.512984,222.538555 317.33738,221.678007 C315.23127,220.843231 313.194653,219.728328 311.23986,218.462158 C311.125532,218.684018 311.001115,218.890191 310.857644,219.086279" id="Fill-156" fill="#88E0F2"></path>
            <path d="M370.368762,197.845986 C362.824203,205.707449 358.844002,216.956199 348.701272,222.169909 C344.223406,224.472547 338.872384,225.405927 333.95738,224.098298 C331.754875,223.512274 329.561337,222.423143 328.019023,220.706529 C326.469984,218.982072 325.976803,216.7814 326.103461,214.512377 C326.465501,208.044822 328.719566,201.378938 331.328945,195.508612 C331.643909,194.801573 332.778227,195.220642 332.461021,195.934404 C330.247308,200.911687 328.613083,206.133241 327.706301,211.507183 C327.301668,213.912907 326.849958,216.598758 328.127747,218.828563 C329.366306,220.984414 331.847907,222.269634 334.165861,222.906081 C339.049481,224.248446 344.387052,223.178363 348.762919,220.769278 C353.135424,218.359071 356.511477,214.553836 359.407798,210.560356 C362.746863,205.95396 365.635339,201.043907 369.596485,196.917087 C370.13338,196.356834 370.903416,197.290215 370.368762,197.845986" id="Fill-158" fill="#FFFFFF"></path>
            <path d="M301.479121,229.603115 C303.681626,230.846876 306.163227,231.663724 308.670608,232.015562 C316.292507,233.091247 323.739551,230.594762 331.028553,228.736965 C334.90115,227.75092 339.116733,226.720056 343.061066,227.933563 C346.487558,228.987958 349.178761,231.537107 351.419375,234.235283 C357.015867,240.977362 361.472437,248.787282 364.770029,257.031958 C364.937038,256.774242 365.108531,256.518767 365.281144,256.266653 L365.281144,256.263291 C364.527921,254.431266 363.71193,252.625012 362.843258,250.842288 C359.839332,244.690715 356.202117,238.608614 351.762361,233.378097 C349.764975,231.027277 347.424603,228.838931 344.556303,227.615339 C341.291216,226.223672 337.716769,226.447773 334.309332,227.132402 C326.549566,228.692145 319.045358,231.839643 310.991924,231.418333 C307.856858,231.25474 304.631001,230.417722 301.874788,228.880389 C301.738042,229.116816 301.604658,229.357725 301.479121,229.603115" id="Fill-160" fill="#88E0F2"></path>
            <path d="M336.853253,256.243571 C341.425272,265.598667 346.994863,274.443934 353.420796,282.620259 C353.504862,282.293072 353.590047,281.968125 353.683079,281.644299 C352.311138,279.889588 350.980668,278.103503 349.692791,276.286044 C345.297869,270.08629 341.387162,263.543661 338.004384,256.737713 C336.787122,254.287169 333.520914,248.710415 337.293754,246.92321 C340.413128,245.443022 344.219595,249.040964 346.367177,250.880833 C351.53886,255.304587 355.788069,260.564238 359.493657,266.225029 C359.62704,265.950506 359.763786,265.678223 359.902774,265.407061 C359.388295,264.62943 358.862608,263.859643 358.326834,263.096579 C356.085099,259.908742 353.637124,256.862089 350.922383,254.060827 C348.469924,251.531847 345.73837,248.829189 342.659347,247.073357 C340.463568,245.820633 337.140195,244.942157 335.452169,247.476739 C333.668868,250.156987 335.6472,253.770616 336.853253,256.243571" id="Fill-162" fill="#88E0F2"></path>
            <path d="M299.65009,238.708227 C299.665782,238.979389 299.687078,239.251672 299.7151,239.521714 C302.926385,239.528437 306.142155,239.916131 309.279463,240.688159 C314.460113,241.965535 320.183262,244.190858 323.821599,248.263894 C325.617228,250.269598 326.766118,252.834434 326.371572,255.567346 C325.927709,258.626324 323.835049,261.150822 321.361294,262.869677 C316.605453,266.178528 310.331957,267.657595 304.626742,268.053133 C304.577423,268.056495 304.526984,268.059856 304.477666,268.060977 C304.433952,268.332139 304.386876,268.610024 304.334195,268.885669 C305.558183,268.811715 306.776566,268.683978 307.992707,268.500215 C313.649725,267.645269 320.333459,265.731447 324.329352,261.378285 C326.205684,259.333363 327.44088,256.626223 327.241365,253.810394 C327.065389,251.320632 325.755095,249.084104 324.052497,247.315947 C319.99944,243.110691 313.887349,240.842789 308.296462,239.633764 C305.450579,239.018607 302.548653,238.712709 299.65009,238.708227" id="Fill-164" fill="#88E0F2"></path>
            <path d="M300.525711,283.1116 C305.064104,282.097543 309.156392,279.567443 313.27558,277.383579 C316.030672,275.924681 318.904577,274.569991 322.000413,274.041112 C325.657804,273.416991 329.317436,274.164368 332.667709,275.671447 C339.46465,278.729305 345.370501,284.269082 350.495108,289.569071 C350.905346,289.993742 351.314462,290.419534 351.715733,290.85429 C351.768414,290.519259 351.824457,290.184228 351.881621,289.849197 C351.099256,289.018903 350.301198,288.203175 349.48969,287.400894 C344.54106,282.518853 338.984919,277.488906 332.525359,274.722379 C329.402622,273.381135 326.011998,272.699868 322.618011,273.12566 C319.635382,273.501029 316.8164,274.665234 314.153219,276.012081 C309.809857,278.20827 305.54944,281.043148 300.8205,282.215196 C300.725226,282.514371 300.626589,282.812426 300.525711,283.1116" id="Fill-166" fill="#88E0F2"></path>
            <path d="M293.75343,300.725603 C298.542897,299.450469 302.848149,296.820643 307.230741,294.522488 C312.289216,291.869132 317.501251,290.049431 323.277081,290.09089 C328.989022,290.127867 334.629228,291.679766 339.724692,294.21659 C343.76654,296.232378 347.407118,298.856601 350.720402,301.866278 C350.73049,301.523403 350.739457,301.180528 350.752908,300.836533 C342.755517,293.7964 332.622875,288.861696 321.762789,289.306537 C316.179748,289.53624 311.193008,291.496003 306.310509,294.088852 C302.360572,296.189799 298.44426,298.514847 294.150217,299.769813 C294.015713,300.091398 293.882329,300.408501 293.75343,300.725603" id="Fill-168" fill="#88E0F2"></path>
            <path d="M352.54652,323.516452 C346.93994,300.791489 351.50075,276.537037 364.218114,257.031286 C367.087535,252.629942 370.432203,248.38771 374.188231,244.569029 C374.685896,244.06256 375.464899,244.841311 374.967234,245.34778 C355.178317,265.469809 346.82337,295.715601 353.610223,323.222879 C353.780595,323.91199 352.716892,324.205562 352.54652,323.516452" id="Fill-170" fill="#171612"></path>
            <path d="M375.547283,210.306114 C375.562975,210.465225 375.584271,210.618734 375.611172,210.776726 C376.131255,214.041877 378.777623,216.474494 381.922777,217.337283 C386.310974,218.542946 390.041221,216.921575 393.152749,214.206592 C393.046267,213.975768 392.933059,213.743823 392.806401,213.512999 C390.146582,215.863819 386.994703,217.363054 383.228588,216.785994 C379.743811,216.257116 376.69393,213.73822 376.359912,210.141399 C376.348703,210.023746 376.337494,209.89825 376.334132,209.777235 C376.231012,207.260581 377.219617,205.012848 378.564658,202.962324 C378.443604,202.900696 378.322551,202.834586 378.20486,202.767356 C378.164508,202.746066 378.119674,202.720294 378.07596,202.699005 C378.001982,202.658667 377.929126,202.618329 377.859632,202.57799 L377.859632,202.580231 C376.353186,204.9064 375.276033,207.452187 375.547283,210.306114" id="Fill-172" fill="#88E0F2"></path>
            <path d="M313.520826,212.227556 C313.090413,215.183448 312.284509,218.031772 310.414902,220.412845 C308.555382,222.778231 305.925827,224.2192 303.876881,226.364968 C298.497838,232.003349 299.738638,241.741658 302.27292,248.373927 C302.526236,249.037266 301.460291,249.322995 301.210337,248.6675 C298.77245,242.285103 297.756944,233.917172 301.428906,227.779045 C303.127021,224.943047 306.054727,223.379942 308.337934,221.088509 C310.874457,218.544963 311.949369,215.4322 312.458243,211.935104 C312.560242,211.235909 313.621704,211.532842 313.520826,212.227556" id="Fill-174" fill="#171612"></path>
            <path d="M302.295673,248.902246 C301.017884,255.34627 298.619228,261.561711 296.424569,267.735694 C296.188066,268.399033 295.123242,268.113304 295.360866,267.442122 C297.555524,261.268139 299.954181,255.052698 301.233091,248.608673 C301.370958,247.91396 302.43354,248.208653 302.295673,248.902246" id="Fill-176" fill="#171612"></path>
            <path d="M258.349819,281.482274 C258.857572,287.41871 263.836466,291.90073 269.686273,291.90073 C270.012446,291.90073 270.339739,291.885043 270.670395,291.860392 C281.140419,290.967349 290.072613,290.195321 297.731501,289.497247 C298.170881,289.456908 298.60914,289.41657 299.042916,289.380714 C303.117269,289.001983 306.818374,288.649024 310.195548,288.303909 C310.713389,288.252366 311.224504,288.197461 311.726653,288.145918 C314.303527,287.878117 316.680888,287.617039 318.874425,287.355961 C319.260004,287.312262 319.635494,287.267442 320.006502,287.22038 C322.053206,286.973869 323.938505,286.725117 325.679212,286.474124 C326.046857,286.422581 326.411139,286.367676 326.764212,286.316133 C331.83838,285.559792 335.638121,284.770956 338.655496,283.851022 C339.070217,283.723284 339.470367,283.594426 339.855945,283.462206 L339.860429,283.462206 C341.939638,282.754047 343.62206,281.964091 345.115056,281.056482 C348.693986,278.87822 352.21351,276.255118 355.62431,273.35301 C356.002042,273.033666 356.380896,272.706479 356.755265,272.37593 C358.695487,270.681726 360.599841,268.900123 362.451514,267.064736 C362.917795,266.605329 363.373988,266.14256 363.832423,265.67643 L363.835786,265.671948 C369.209225,260.202763 374.15113,254.321232 378.417152,248.800504 C378.627875,248.528221 378.832994,248.26042 379.039233,247.994861 C387.886241,236.439092 393.681126,226.655963 394.151891,225.852561 C394.559886,225.161209 394.883817,224.441845 395.129287,223.710155 C395.258187,223.329183 395.368032,222.942609 395.452097,222.552673 C396.496746,217.858878 394.467975,212.828931 390.098834,210.265215 C384.674955,207.08186 377.697555,208.895958 374.512049,214.31472 C374.408929,214.482796 369.430036,222.873138 361.944882,232.854597 C361.87763,232.938635 361.815982,233.022672 361.753214,233.10671 L361.749851,233.111192 C361.687083,233.19523 361.625435,233.277027 361.562666,233.361065 C353.864548,243.561022 343.610852,255.294951 333.293266,261.586587 C332.870699,261.810688 331.809237,262.225275 329.17744,262.784407 C328.758235,262.872926 328.303163,262.964808 327.799894,263.060051 C325.386666,263.519458 321.964657,264.051698 317.118026,264.639963 C311.98109,265.259602 305.789417,265.888206 298.075607,266.601967 L298.072244,266.601967 C297.13632,266.686005 296.169011,266.773405 295.183769,266.865286 L295.180406,266.865286 C291.549916,267.192473 287.599979,267.542071 283.28576,267.912958 L283.282397,267.912958 C282.521328,267.982429 281.750171,268.048539 280.963322,268.114649 C277.163581,268.445198 273.095953,268.790314 268.731294,269.165683 C262.465645,269.701284 257.816286,275.215289 258.349819,281.482274" id="Fill-178" fill="#00B100"></path>
            <path d="M378.094342,248.560828 C378.18177,248.693047 378.297219,248.770362 378.417152,248.800616 C378.839719,248.903702 379.342988,248.468946 379.045959,248.006178 C379.042596,248.002816 379.042596,247.999455 379.039233,247.994973 C374.955913,241.68765 377.392679,233.742149 382.787414,229.095414 C386.32151,226.04652 390.629004,224.455403 395.129287,223.710267 C395.258187,223.328175 395.368032,222.942721 395.452097,222.552785 C390.179536,223.36179 385.137874,225.256564 381.187936,229.059558 C375.977023,234.076059 373.989725,242.2423 378.094342,248.560828" id="Fill-180" fill="#88E0F2"></path>
            <path d="M361.738867,233.419779 C364.414378,244.475803 364.641914,255.958738 362.451738,267.064064 C362.918019,266.604656 363.374212,266.141888 363.832647,265.675758 L363.83601,265.671276 C365.725793,254.902102 365.383928,243.807982 362.800328,233.125087 C362.694967,232.68921 362.227565,232.64439 361.945106,232.853924 C361.855437,232.912191 361.785943,233.00071 361.753438,233.107158 L361.750075,233.11164 C361.715329,233.203522 361.713087,233.305488 361.738867,233.419779" id="Fill-182" fill="#88E0F2"></path>
            <path d="M338.654936,283.851246 C339.069657,283.723508 339.470927,283.59465 339.855385,283.46131 L339.859868,283.46131 C340.661289,277.962992 341.712662,272.508373 343.291965,267.173649 C344.016045,264.734309 344.761422,262.208691 345.864356,259.908294 C347.176892,257.178744 350.593296,254.746128 352.738636,258.255549 C355.337928,262.497781 355.84456,268.514893 355.62487,273.353234 C356.002603,273.03389 356.380335,272.706703 356.754705,272.376154 C356.814111,269.533433 356.546224,266.704157 355.899483,263.927546 C355.367071,261.638354 354.709122,258.824766 353.180258,256.946799 C351.988776,255.492384 350.240223,255.004964 348.473735,255.66158 C346.323911,256.467223 345.21089,258.549122 344.394898,260.558187 C341.37416,267.982654 339.763474,275.884455 338.654936,283.851246" id="Fill-184" fill="#88E0F2"></path>
            <path d="M325.679549,286.474124 C326.047193,286.422581 326.410354,286.367676 326.764548,286.316133 C324.631537,278.543189 325.432958,270.120353 329.177776,262.784407 C328.758572,262.872926 328.3035,262.964808 327.80023,263.060051 C324.271739,270.413925 323.589131,278.748242 325.679549,286.474124" id="Fill-186" fill="#88E0F2"></path>
            <path d="M297.062455,267.40593 C306.697432,270.459306 314.850623,277.61373 318.874537,287.356522 C318.922735,287.466331 318.969811,287.576141 319.013525,287.690432 C319.274687,288.341446 320.343995,288.054596 320.07947,287.39686 C320.058174,287.337473 320.031273,287.278086 320.006614,287.220941 C316.118324,277.673117 308.493062,270.5355 299.336695,267.056332 C298.576747,267.170624 297.81904,267.288277 297.062455,267.40593" id="Fill-188" fill="#88E0F2"></path>
            <path d="M267.469982,274.498726 C271.693411,276.567179 275.925807,278.624426 280.240026,280.494549 C281.56265,281.067127 282.89312,281.625138 284.233677,282.158499 C287.24769,283.35856 295.430023,287.624322 297.226774,282.452071 C297.947492,280.376896 296.525111,278.271467 295.234992,276.772231 C293.542482,274.803504 291.539492,273.066721 289.44347,271.53387 C288.322602,270.719263 287.162504,269.969645 285.964297,269.29286 C285.38705,269.400429 284.821012,269.510238 284.259457,269.620048 C285.170722,270.09066 286.064054,270.604971 286.930485,271.15626 C288.889761,272.401141 290.7235,273.829785 292.40256,275.428746 C294.00428,276.949271 296.800844,279.374044 296.168675,281.82795 C295.273102,285.302636 290.642798,283.355198 288.430205,282.569724 C285.960934,281.691248 283.528652,280.722011 281.122149,279.685544 C280.827361,279.557807 280.52921,279.427828 280.236663,279.296729 C276.396571,277.621574 272.618127,275.795151 268.852012,273.95192 C268.400302,274.127839 267.940746,274.308241 267.469982,274.498726" id="Fill-190" fill="#88E0F2"></path>
            <path d="M297.731276,289.497583 C298.171777,289.457245 298.608916,289.416906 299.042691,289.38105 C300.10079,287.499722 301.761916,286.158478 304.444152,286.169683 C306.62424,286.180888 308.511781,287.058243 310.195324,288.304245 C310.713164,288.252702 311.22428,288.197797 311.726429,288.146254 C309.305355,286.136068 306.50879,284.681652 303.210077,285.155626 C300.416875,285.559008 298.755749,287.293549 297.731276,289.497583" id="Fill-192" fill="#88E0F2"></path>
            <path d="M241.685657,292.700434 L267.897145,292.700434 C267.897145,292.700434 273.00718,291.532868 277.96814,286.573513 C279.57098,284.972311 280.166161,282.757073 280.239017,280.493653 C280.258072,280.096994 280.253589,279.693612 280.236776,279.296953 C280.055195,274.947153 278.259565,270.781115 278.259565,270.781115 C278.259565,270.781115 274.271518,271.85792 268.852124,273.952144 C268.400414,274.128063 267.940858,274.308465 267.470094,274.498951 C258.533417,278.087928 246.546859,284.229416 241.685657,292.700434" id="Fill-194" fill="#B15F4F"></path>
            <path d="M369.817071,225.961474 C358.616242,238.020349 347.416533,250.078104 336.214583,262.136979 C335.731489,262.658014 334.953607,261.878142 335.43558,261.358228 C346.635288,249.299353 357.837239,237.240477 369.038068,225.182723 C369.521162,224.661688 370.300165,225.44268 369.817071,225.961474" id="Fill-196" fill="#171612"></path>
            <path d="M335.810062,262.148072 C316.978366,265.979078 297.680389,267.04804 278.912583,271.313803 C278.222128,271.469553 277.926219,270.407314 278.620036,270.249323 C297.388963,265.985802 316.685819,264.91684 335.516394,261.085833 C336.209091,260.944649 336.50612,262.005768 335.810062,262.148072" id="Fill-198" fill="#171612"></path>
            <path d="M372.751615,257.486547 C364.930201,265.79173 356.465409,273.953489 347.142033,280.573432 C342.584585,283.80833 337.674064,285.709828 332.15155,286.540122 C326.909252,287.326716 321.587373,287.649422 316.318175,288.248892 C310.49863,288.91111 304.680207,289.504978 298.828157,289.828804 C298.119769,289.868022 298.122011,288.766565 298.828157,288.727348 C305.140884,288.37663 311.411017,287.698724 317.691238,286.990565 C324.521804,286.220778 331.715532,286.182681 338.286058,284.00778 C345.183877,281.724191 350.866676,276.479107 356.26029,271.805481 C361.752541,267.045575 366.989235,261.9977 371.972612,256.707796 C372.459068,256.190122 373.238071,256.969994 372.751615,257.486547" id="Fill-200" fill="#171612"></path>
            <path d="M336.21066,261.417054 C337.848247,262.73813 338.960148,264.53654 339.426429,266.585944 C339.584471,267.276175 338.521889,267.571988 338.363846,266.879516 C337.935675,264.995947 336.933619,263.407071 335.431657,262.195805 C334.88019,261.750965 335.663676,260.974455 336.21066,261.417054" id="Fill-202" fill="#171612"></path>
            <path d="M357.096682,302.411851 C357.096682,302.411851 367.620507,322.894684 362.093509,339.08374 C356.566511,355.271676 315.302893,365.259858 292.390118,355.890195 C269.476223,346.519412 294.98941,297.780804 294.98941,297.780804 C294.98941,297.780804 311.744138,312.302549 357.096682,302.411851" id="Fill-204" fill="#171612"></path>
            <path d="M278.033935,479.777714 C281.125287,475.312501 307.990241,452.026166 307.990241,452.026166 C307.990241,452.026166 313.022936,456.395015 312.540963,460.902807 C312.082528,465.195461 311.123066,487.862158 310.940364,490.246592 L307.831078,490.089722 L306.598123,479.663422 C306.598123,479.663422 298.942598,490.63989 293.42793,494.252398 C287.913261,497.866027 269.974897,496.264825 265.68982,495.472628 C261.405864,494.680431 274.942582,484.242926 278.033935,479.777714" id="Fill-206" fill="#007B00"></path>
            <path d="M300.481998,440.405744 L307.711593,450.903756 C307.711593,450.903756 308.983778,454.282078 307.299114,459.095768 C305.615571,463.910578 299.783697,471.389949 294.29705,476.884906 C289.566989,481.622401 279.71008,486.090975 276.900065,484.653367 C274.09005,483.215759 282.92697,473.718359 285.631623,468.668243 C288.335156,463.617006 288.991984,459.378135 290.370651,455.15047 C291.958921,450.281875 285.086882,441.476947 285.086882,441.476947 L300.481998,440.405744 Z" id="Fill-208" fill="#B15F4F"></path>
            <path d="M280.237336,310.999402 C280.237336,310.999402 226.746174,329.376805 229.704143,353.262611 C232.660992,377.148417 284.688301,448.151459 284.688301,448.151459 L305.649645,444.431383 L295.304038,405.553219 C289.272649,383.909544 286.706984,371.8305 278.714077,362.299484 L322.666657,355.566369 C322.666657,355.566369 312.531772,311.583185 280.237336,310.999402" id="Fill-210" fill="#171612"></path>
            <path d="M299.341403,439.175766 C299.414259,439.170163 299.488236,439.154476 299.559972,439.128705 C299.980297,438.977436 300.198866,438.513547 300.047549,438.093358 C299.94555,437.812111 289.838688,409.752424 284.797025,389.455596 C280.652057,372.761191 270.145045,361.715253 266.229854,358.062406 C271.178484,357.600758 279.344005,355.879663 279.740792,355.795625 C280.17793,355.702623 280.457026,355.273469 280.363994,354.835352 C280.272083,354.399475 279.842791,354.118229 279.404531,354.212351 C279.294686,354.234761 268.334843,356.545242 264.22238,356.559809 C263.882757,356.557568 263.573398,356.777187 263.46019,357.101013 C263.348104,357.424839 263.451223,357.785642 263.720232,358.000779 C263.864824,358.11507 278.247796,369.792974 283.22669,389.845532 C288.288528,410.224157 298.423412,438.360038 298.52429,438.642405 C298.649827,438.990882 298.990571,439.199296 299.341403,439.175766" id="Fill-212" fill="#5A554D"></path>
            <path d="M281.254299,443.544055 C281.290167,443.541814 281.327156,443.536211 281.365265,443.528368 L303.675013,438.865946 C304.112151,438.775185 304.393489,438.346032 304.301578,437.909035 C304.209667,437.472038 303.780374,437.189671 303.344357,437.282672 L281.033488,441.945094 C280.59635,442.036975 280.315012,442.465008 280.406923,442.903126 C280.489867,443.303146 280.857512,443.572067 281.254299,443.544055" id="Fill-214" fill="#5A554D"></path>
            <path d="M139.269634,426.123675 C144.666611,425.508518 179.886516,430.390558 179.886516,430.390558 C179.886516,430.390558 179.911171,437.053081 176.199978,439.659376 C172.667004,442.141294 154.970747,456.343696 153.055184,457.775701 L151.12505,455.33188 L158.162978,447.541008 C158.162978,447.541008 144.85828,449.007749 138.507444,447.238472 C132.156609,445.468074 121.549839,430.914954 119.326038,427.171347 C117.101116,423.426619 133.872657,426.738832 139.269634,426.123675" id="Fill-216" fill="#007B00"></path>
            <path d="M187.251396,420.627262 L180.549729,429.441154 C180.549729,429.441154 178.842648,432.622268 174.109224,434.524885 C169.378042,436.428624 159.90447,436.965345 152.155912,436.455516 C145.474421,436.015157 135.619753,431.542101 134.851959,428.482002 C134.083044,425.419662 147.052602,425.81632 152.635643,424.525499 C158.219806,423.233556 161.84357,420.9354 165.932495,419.190774 C170.645743,417.180588 176.492189,409.933162 176.492189,409.933162 L187.251396,420.627262 Z" id="Fill-218" fill="#B15F4F"></path>
            <path d="M170.550021,413.946923 L188.905348,425.67749 C188.905348,425.67749 203.317464,412.332275 221.115719,396.56789 C238.913975,380.803504 255.506178,362.217687 262.451073,348.155349 C262.451073,348.155349 314.955872,370.811961 343.421425,365.154531 C355.270116,362.802591 360.607687,354.685652 362.803467,346.015184 C363.129639,344.726604 363.38968,343.417854 363.58247,342.115827 C365.2492,331.194264 362.772082,320.62454 362.772082,320.62454 C362.772082,320.62454 296.017694,308.343805 261.52972,309.533781 C259.122097,309.617819 256.875878,309.764606 254.817965,309.988707 C251.561845,310.340545 248.780973,310.881749 246.610973,311.635849 C242.226139,313.174302 236.776481,317.789663 230.825795,324.2617 C230.611709,324.492524 230.399865,324.725589 230.18578,324.962015 C204.735361,353.03851 170.550021,413.946923 170.550021,413.946923" id="Fill-220" fill="#171612"></path>
            <path d="M230.826131,324.2617 C249.620839,327.582877 258.16297,316.327404 261.530056,309.533781 C259.122433,309.617819 256.875093,309.764606 254.817181,309.988707 C251.562181,310.340545 248.781309,310.881749 246.611309,311.635849 C242.226475,313.174302 236.776817,317.789663 230.826131,324.2617" id="Fill-222" fill="#898CF8"></path>
            <path d="M241.138337,377.870806 C241.293017,377.859601 241.445455,377.804697 241.577717,377.703851 C254.517012,367.678693 261.4776,353.062825 263.110704,349.32482 C269.884107,353.248829 290.62464,359.35334 291.543751,359.623382 C291.973044,359.747758 292.422511,359.502367 292.548049,359.074334 C292.674707,358.645181 292.429237,358.195858 291.999944,358.070362 C291.766804,358.002011 268.663482,351.203907 263.189165,347.469264 C262.986288,347.330321 262.73073,347.291103 262.494227,347.365057 C262.258845,347.43789 262.069418,347.613809 261.979749,347.843512 C261.911376,348.01495 255.089776,365.18893 240.585749,376.424234 C240.232676,376.697638 240.168787,377.206347 240.442278,377.559306 C240.613771,377.781166 240.878296,377.889855 241.138337,377.870806" id="Fill-224" fill="#5A554D"></path>
            <path d="M192.87322,421.688716 C193.116448,421.671908 193.349588,421.545291 193.49418,421.326793 C193.738529,420.952544 193.63541,420.451678 193.262161,420.206288 L174.582903,407.928914 C174.209654,407.683524 173.707505,407.78661 173.462035,408.159738 C173.216565,408.532866 173.320806,409.034853 173.694055,409.280243 L192.373313,421.557617 C192.525751,421.659583 192.702848,421.701042 192.87322,421.688716" id="Fill-226" fill="#5A554D"></path>
            <path d="M188.365651,418.611697 C188.539385,418.785375 188.773647,418.864931 188.996699,418.844762 C189.186126,418.834678 189.366585,418.755122 189.510057,418.616179 C189.818295,418.30804 220.369782,388.060007 235.106949,375.027413 C248.412768,363.257628 256.461718,344.988914 258.088096,341.054821 C263.548963,343.208431 297.591953,356.156987 329.237406,357.89265 C343.55761,358.683726 352.550331,354.500881 357.569576,350.855878 C359.897618,349.170639 361.599095,347.449543 362.802906,346.017537 C363.1302,344.725595 363.38912,343.417966 363.58303,342.114818 C363.359977,342.512598 362.871279,343.308156 362.076584,344.3379 C360.926574,345.803521 359.132065,347.733031 356.535015,349.608756 C351.73546,353.068876 343.114868,357.037704 329.321471,356.281364 C295.253823,354.406759 258.316753,339.408799 257.947988,339.260892 C257.74399,339.175734 257.519816,339.175734 257.322544,339.265374 C257.117425,339.350532 256.963866,339.514126 256.884285,339.718058 C256.804703,339.926472 248.636941,360.900085 234.033158,373.815026 C219.264607,386.876754 188.678373,417.159523 188.371255,417.463179 C188.052929,417.781403 188.052929,418.293474 188.365651,418.611697" id="Fill-228" fill="#5A554D"></path>
            <path d="M159.045773,300.362336 L292.044555,300.362336 C292.341585,300.362336 292.58145,300.121427 292.58145,299.825614 C292.58145,295.698794 289.23454,292.352966 285.106385,292.352966 L159.045773,292.352966 C158.749864,292.352966 158.508877,292.592754 158.508877,292.889688 L158.508877,299.825614 C158.508877,300.121427 158.749864,300.362336 159.045773,300.362336" id="Fill-230" fill="#5A554D"></path>
            <path d="M114.64126,226.898104 L131.241308,297.085419 C131.684051,298.956662 133.353023,300.275497 135.276431,300.275497 L237.538783,300.275497 C240.213173,300.275497 242.190383,297.780132 241.573906,295.178319 L224.974979,224.991004 C224.531115,223.120881 222.862143,221.799806 220.938735,221.799806 L118.677504,221.799806 C116.001993,221.799806 114.024782,224.297412 114.64126,226.898104" id="Fill-232" fill="#171612"></path>
            <path d="M135.527281,293.284778 L227.0237,293.284778 C227.34651,293.284778 227.608793,293.02258 227.608793,292.699874 C227.608793,292.376048 227.34651,292.11385 227.0237,292.11385 L135.527281,292.11385 C135.204472,292.11385 134.943309,292.376048 134.943309,292.699874 C134.943309,293.02258 135.204472,293.284778 135.527281,293.284778" id="Fill-234" fill="#5A554D"></path>
            <path d="M197.606195,258.558982 C198.589196,263.658401 208.327293,270.044159 208.327293,270.044159 C208.327293,270.044159 217.270695,263.658401 217.614802,258.558982 C217.989172,253.03041 211.381657,251.335086 207.41939,255.502244 C202.937041,251.335086 196.54025,253.03041 197.606195,258.558982" id="Fill-236" fill="#E1E1E1"></path>
            <path d="M203.020097,238.300139 L205.631719,238.299019 L204.936781,234.934142 L202.325159,234.935262 L203.020097,238.300139 Z M194.410714,234.938624 L194.054278,230.931698 L197.246509,230.930577 L196.471989,227.271008 L200.693176,227.268767 L201.466575,230.928336 L204.078196,230.927216 L203.304798,227.267646 L207.525985,227.265405 L208.299384,230.924975 L211.992642,230.923854 L212.349078,234.92966 L209.157968,234.931901 L209.852906,238.296778 L213.547285,238.295657 L213.9026,242.301463 L210.71037,242.303704 L211.484889,245.963273 L207.263702,245.965514 L206.490303,242.305945 L203.878682,242.307065 L204.652081,245.966634 L200.430893,245.968875 L199.657495,242.308186 L195.964236,242.310427 L195.6078,238.303501 L198.79891,238.30238 L198.103972,234.936383 L194.410714,234.938624 Z" id="Fill-238" fill="#00B100"></path>
            <path d="M216.886462,221.80003 L234.561423,300.275721 L237.538447,300.275721 C240.213958,300.275721 242.190047,297.780356 241.57357,295.177423 L224.974642,224.991228 C224.530779,223.121106 222.861807,221.80003 220.938398,221.80003 L216.886462,221.80003 Z" id="Fill-240" fill="#5A554D"></path>
            <path d="M165.16896,263.783897 C165.683439,268.075431 169.581816,271.554599 173.874739,271.554599 C178.167661,271.554599 181.229872,268.075431 180.714273,263.783897 C180.198673,259.492363 176.302538,256.013195 172.009615,256.013195 C167.715571,256.013195 164.653361,259.492363 165.16896,263.783897" id="Fill-242" fill="#5A554D"></path>
            <polygon id="Fill-244" fill="#E1E1E1" points="179.872277 480.819223 189.913008 480.819223 189.913008 313.006787 179.872277 313.006787"></polygon>
            <polygon id="Fill-246" fill="#E1E1E1" points="113.568589 482.968576 113.568589 494.569165 256.969022 494.569165 256.969022 482.968576 189.914241 475.439903 185.268245 475.891466 180.622249 475.439903"></polygon>
            <polygon id="Fill-247" fill="#B3CF38" points="113.568477 494.568941 256.96891 494.568941 256.96891 487.548977 113.568477 487.548977"></polygon>
            <polygon id="Fill-248" fill="#B3CF38" points="179.872613 330.457308 179.872613 338.600018 189.913345 341.735191 189.913345 330.457308"></polygon>
            <path d="M60.5757645,330.457308 L307.966927,330.457308 C309.600031,330.457308 310.923776,329.133992 310.923776,327.501416 L310.923776,316.66053 L57.6189159,316.66053 L57.6189159,327.501416 C57.6189159,329.133992 58.9426605,330.457308 60.5757645,330.457308" id="Fill-249" fill="#B3CF38"></path>
            <path d="M51.4840715,305.814937 L51.4840715,311.158626 C51.4840715,314.233292 53.1418346,316.723054 55.1919014,316.723054 L313.05645,316.723054 C315.103154,316.723054 316.762038,314.233292 316.762038,311.158626 L316.762038,305.814937 C316.762038,302.742513 315.103154,300.25163 313.05645,300.25163 L55.1919014,300.25163 C53.1418346,300.25163 51.4840715,302.742513 51.4840715,305.814937" id="Fill-250" fill="#00B100"></path>
            <path d="M88.5679747,300.350234 L97.5012891,300.350234 C98.467477,300.350234 99.2509634,299.567001 99.2509634,298.600005 L99.2509634,249.087129 C99.2509634,248.121254 98.467477,247.3369 97.5012891,247.3369 L88.5679747,247.3369 C87.6017868,247.3369 86.8171796,248.121254 86.8171796,249.087129 L86.8171796,298.600005 C86.8171796,299.567001 87.6017868,300.350234 88.5679747,300.350234" id="Fill-251" fill="#00B100"></path>
            <path d="M90.3028535,275.658673 L95.765962,275.658673 C96.6480847,275.658673 97.3631982,274.943791 97.3631982,274.061954 L97.3631982,273.626077 C97.3631982,272.743119 96.6480847,272.029357 95.765962,272.029357 L90.3028535,272.029357 C89.4207307,272.029357 88.7056172,272.743119 88.7056172,273.626077 L88.7056172,274.061954 C88.7056172,274.943791 89.4207307,275.658673 90.3028535,275.658673" id="Fill-252" fill="#014A01"></path>
            <polygon id="Fill-253" fill="#014A01" points="86.8178521 253.665961 99.2516359 253.665961 99.2516359 251.618798 86.8178521 251.618798"></polygon>
            <polygon id="Fill-254" fill="#014A01" points="86.8178521 257.94629 99.2516359 257.94629 99.2516359 255.899127 86.8178521 255.899127"></polygon>
            <polygon id="Fill-255" fill="#014A01" points="86.8178521 289.54005 99.2516359 289.54005 99.2516359 287.492887 86.8178521 287.492887"></polygon>
            <polygon id="Fill-256" fill="#014A01" points="86.8178521 293.820379 99.2516359 293.820379 99.2516359 291.773216 86.8178521 291.773216"></polygon>
            <path d="M101.001422,300.350234 L109.935858,300.350234 C110.902045,300.350234 111.685532,299.567001 111.685532,298.600005 L111.685532,249.087129 C111.685532,248.121254 110.902045,247.3369 109.935858,247.3369 L101.002543,247.3369 C100.035234,247.3369 99.2506271,248.121254 99.2506271,249.087129 L99.2506271,298.600005 C99.2506271,299.567001 100.035234,300.350234 101.001422,300.350234" id="Fill-257" fill="#00B100"></path>
            <path d="M102.736413,275.658673 L108.200642,275.658673 C109.081644,275.658673 109.796758,274.943791 109.796758,274.061954 L109.796758,273.626077 C109.796758,272.743119 109.081644,272.029357 108.200642,272.029357 L102.736413,272.029357 C101.85429,272.029357 101.139177,272.743119 101.139177,273.626077 L101.139177,274.061954 C101.139177,274.943791 101.85429,275.658673 102.736413,275.658673" id="Fill-258" fill="#014A01"></path>
            <polygon id="Fill-259" fill="#014A01" points="99.2516359 253.665961 111.686541 253.665961 111.686541 251.618798 99.2516359 251.618798"></polygon>
            <polygon id="Fill-260" fill="#014A01" points="99.2516359 257.94629 111.686541 257.94629 111.686541 255.899127 99.2516359 255.899127"></polygon>
            <polygon id="Fill-261" fill="#014A01" points="99.2516359 289.54005 111.686541 289.54005 111.686541 287.492887 99.2516359 287.492887"></polygon>
            <polygon id="Fill-262" fill="#014A01" points="99.2516359 293.820379 111.686541 293.820379 111.686541 291.773216 99.2516359 291.773216"></polygon>
            <path d="M67.9741629,298.695809 L76.7942698,300.117729 C77.7492489,300.271239 78.645943,299.622466 78.8006227,298.668916 L86.6836842,249.786884 C86.8372431,248.832214 86.1882608,247.933569 85.2332816,247.78006 L76.4142957,246.358139 C75.4604374,246.20463 74.5626224,246.852282 74.4079427,247.806952 L66.5248812,296.690105 C66.3713223,297.644775 67.0203046,298.542299 67.9741629,298.695809" id="Fill-263" fill="#007B00"></path>
            <path d="M72.3712143,274.393735 L80.2598802,275.665508 C80.4414607,275.694641 80.6129534,275.571386 80.642096,275.389864 L81.1139812,272.464225 C81.1431238,272.281583 81.0198284,272.111266 80.8382478,272.082133 L72.9495819,270.81036 C72.7680014,270.781227 72.5965087,270.905603 72.5673661,271.087125 L72.0954809,274.011643 C72.0663383,274.193165 72.1896337,274.364602 72.3712143,274.393735" id="Fill-264" fill="#014A01"></path>
            <polygon id="Fill-265" fill="#014A01" points="73.6792667 252.327181 85.9550082 254.305993 86.2811807 252.284602 74.0054392 250.30579"></polygon>
            <polygon id="Fill-266" fill="#014A01" points="72.9973309 256.553166 85.2730724 258.531978 85.5992449 256.510587 73.3235034 254.531775"></polygon>
            <polygon id="Fill-267" fill="#014A01" points="67.9676619 287.744553 80.2434034 289.723365 80.5695759 287.701973 68.2938344 285.723162"></polygon>
            <polygon id="Fill-268" fill="#014A01" points="67.2857261 291.970537 79.5614676 293.949349 79.88764 291.927958 67.6118985 289.949146"></polygon>
            <polygon id="Fill-269" fill="#1A2E35" points="51.4836231 310.931612 316.76159 310.931612 316.76159 308.48667 51.4836231 308.48667"></polygon>
        </g>
    </g>
</svg>